<svg xmlns="http://www.w3.org/2000/svg" viewBox="0 0 900 520" role="img" aria-label="Curva Proctor y control de compactación"><defs><style>.bg{fill:#06172a}.panel{fill:#0b2034;stroke:#38bdf8;stroke-width:2}.line{stroke:#38bdf8;stroke-width:4;fill:none;stroke-linecap:round;stroke-linejoin:round}.gold{stroke:#f7d154;fill:none;stroke-width:4;stroke-linecap:round;stroke-linejoin:round}.green{stroke:#22c55e;fill:none;stroke-width:4;stroke-linecap:round;stroke-linejoin:round}.red{stroke:#fb7185;fill:none;stroke-width:4;stroke-linecap:round;stroke-linejoin:round}.txt{fill:#f4f7fb;font-family:Arial, sans-serif;font-size:22px;font-weight:700}.small{fill:#c8d7ec;font-family:Arial, sans-serif;font-size:16px}.tiny{fill:#dff4ff;font-family:Arial, sans-serif;font-size:13px;font-weight:700}.yellow{fill:#f7d154}.cyan{fill:#38bdf8}.muted{fill:#9fb4cd}.white{fill:#fff}.grid{stroke:#294258;stroke-width:1}.arrow{marker-end:url(#arr)} </style><marker id="arr" markerWidth="10" markerHeight="10" refX="8" refY="3" orient="auto"><path d="M0,0 L0,6 L9,3 z" fill="#38bdf8"/></marker></defs><rect class="bg" width="900" height="520" rx="24"/>
<text x="36" y="48" class="txt">Proctor: la humedad controla la densidad y el comportamiento</text>
<rect x="78" y="82" width="610" height="330" class="panel" rx="16"/>
<line x1="130" y1="360" x2="650" y2="360" stroke="#fff" stroke-width="3"/><line x1="130" y1="360" x2="130" y2="125" stroke="#fff" stroke-width="3"/>
<path class="line" d="M155,333 C230,260 330,185 435,170 C535,165 605,245 635,335"/>
<path class="gold" d="M420,360 L420,170" stroke-dasharray="8 8"/><path class="green" d="M200,210 C330,142 505,115 640,100" stroke-dasharray="9 8"/>
<text x="385" y="392" class="tiny">w óptima</text><text x="438" y="162" class="tiny">γd máx</text><text x="228" y="430" class="small">Contenido de humedad w (%) →</text><text x="50" y="260" class="small" transform="rotate(-90 50,260)">Peso unitario seco γd</text>
<text x="155" y="305" class="tiny">lado seco: rígido, difícil de densificar</text><text x="455" y="305" class="tiny">lado húmedo: bombeo / baja resistencia</text><text x="510" y="105" class="tiny">línea cero aire</text>
<rect x="710" y="120" width="150" height="232" rx="14" fill="#0b2034" stroke="#294258"/><text x="730" y="152" class="tiny">Obra</text><text x="730" y="184" class="tiny">1. Medir w</text><text x="730" y="214" class="tiny">2. Ajustar humedad</text><text x="730" y="244" class="tiny">3. Compactar</text><text x="730" y="274" class="tiny">4. Verificar γd</text><text x="730" y="304" class="tiny">5. Aceptar/rechazar</text>
</svg>