<svg xmlns="http://www.w3.org/2000/svg" viewBox="0 0 900 520" role="img" aria-label="Ensayo triaxial y círculos de Mohr"><defs><style>.bg{fill:#06172a}.panel{fill:#0b2034;stroke:#38bdf8;stroke-width:2}.line{stroke:#38bdf8;stroke-width:4;fill:none;stroke-linecap:round;stroke-linejoin:round}.gold{stroke:#f7d154;fill:none;stroke-width:4;stroke-linecap:round;stroke-linejoin:round}.green{stroke:#22c55e;fill:none;stroke-width:4;stroke-linecap:round;stroke-linejoin:round}.red{stroke:#fb7185;fill:none;stroke-width:4;stroke-linecap:round;stroke-linejoin:round}.txt{fill:#f4f7fb;font-family:Arial, sans-serif;font-size:22px;font-weight:700}.small{fill:#c8d7ec;font-family:Arial, sans-serif;font-size:16px}.tiny{fill:#dff4ff;font-family:Arial, sans-serif;font-size:13px;font-weight:700}.yellow{fill:#f7d154}.cyan{fill:#38bdf8}.muted{fill:#9fb4cd}.white{fill:#fff}.grid{stroke:#294258;stroke-width:1}.arrow{marker-end:url(#arr)} </style><marker id="arr" markerWidth="10" markerHeight="10" refX="8" refY="3" orient="auto"><path d="M0,0 L0,6 L9,3 z" fill="#38bdf8"/></marker></defs><rect class="bg" width="900" height="520" rx="24"/>
<text x="36" y="48" class="txt">Triaxial: elegir trayectoria de drenaje antes de elegir parámetros</text>
<rect x="70" y="82" width="620" height="330" class="panel" rx="16"/>
<line x1="125" y1="355" x2="655" y2="355" stroke="#fff" stroke-width="3"/><line x1="125" y1="355" x2="125" y2="120" stroke="#fff" stroke-width="3"/>
<path d="M130,338 L630,130" class="gold"/>
<circle cx="245" cy="300" r="55" fill="none" stroke="#38bdf8" stroke-width="4"/><circle cx="370" cy="272" r="80" fill="none" stroke="#22c55e" stroke-width="4"/><circle cx="520" cy="232" r="110" fill="none" stroke="#fb7185" stroke-width="4"/>
<text x="525" y="125" class="tiny">envolvente c’ + σ’tanφ’</text><text x="260" y="430" class="small">σ normal efectiva →</text><text x="35" y="260" class="small" transform="rotate(-90 35,260)">τ cortante</text>
<text x="205" y="304" class="tiny">σ3 baja</text><text x="340" y="276" class="tiny">σ3 media</text><text x="500" y="236" class="tiny">σ3 alta</text>
<rect x="710" y="112" width="160" height="245" rx="14" fill="#0b2034" stroke="#294258"/><text x="728" y="143" class="tiny">UU → Su corto plazo</text><text x="728" y="175" class="tiny">CU + u → c’, φ’</text><text x="728" y="207" class="tiny">CD → largo plazo</text><text x="728" y="247" class="tiny">No mezclar</text><text x="728" y="275" class="tiny">totales con efectivos</text>
</svg>