  0
SECTION
  2
HEADER
  9
$ACADVER
  1
AC1024
  9
$ACADMAINTVER
 70
6
  9
$DWGCODEPAGE
  3
ANSI_1252
  9
$LASTSAVEDBY
  1
ezdxf
  9
$INSBASE
 10
0.0
 20
0.0
 30
0.0
  9
$EXTMIN
 10
1e+20
 20
1e+20
 30
1e+20
  9
$EXTMAX
 10
-1e+20
 20
-1e+20
 30
-1e+20
  9
$LIMMIN
 10
0.0
 20
0.0
  9
$LIMMAX
 10
420.0
 20
297.0
  9
$ORTHOMODE
 70
0
  9
$REGENMODE
 70
1
  9
$FILLMODE
 70
1
  9
$QTEXTMODE
 70
0
  9
$MIRRTEXT
 70
1
  9
$LTSCALE
 40
1.0
  9
$ATTMODE
 70
1
  9
$TEXTSIZE
 40
2.5
  9
$TRACEWID
 40
1.0
  9
$TEXTSTYLE
  7
OpenSans
  9
$CLAYER
  8
0
  9
$CELTYPE
  6
ByLayer
  9
$CECOLOR
 62
256
  9
$CELTSCALE
 40
1.0
  9
$DISPSILH
 70
0
  9
$DIMSCALE
 40
1.0
  9
$DIMASZ
 40
0.175
  9
$DIMEXO
 40
0.125
  9
$DIMDLI
 40
3.75
  9
$DIMRND
 40
0.0
  9
$DIMDLE
 40
0.0
  9
$DIMEXE
 40
0.375
  9
$DIMTP
 40
0.0
  9
$DIMTM
 40
0.0
  9
$DIMTXT
 40
0.25
  9
$DIMCEN
 40
2.5
  9
$DIMTSZ
 40
0.0
  9
$DIMTOL
 70
0
  9
$DIMLIM
 70
0
  9
$DIMTIH
 70
0
  9
$DIMTOH
 70
0
  9
$DIMSE1
 70
0
  9
$DIMSE2
 70
0
  9
$DIMTAD
 70
1
  9
$DIMZIN
 70
12
  9
$DIMBLK
  1
ARCHTICK
  9
$DIMASO
 70
1
  9
$DIMSHO
 70
1
  9
$DIMPOST
  1

  9
$DIMAPOST
  1

  9
$DIMALT
 70
0
  9
$DIMALTD
 70
3
  9
$DIMALTF
 40
0.03937007874
  9
$DIMLFAC
 40
100.0
  9
$DIMTOFL
 70
1
  9
$DIMTVP
 40
0.0
  9
$DIMTIX
 70
0
  9
$DIMSOXD
 70
0
  9
$DIMSAH
 70
0
  9
$DIMBLK1
  1

  9
$DIMBLK2
  1

  9
$DIMSTYLE
  2
EZDXF
  9
$DIMCLRD
 70
0
  9
$DIMCLRE
 70
0
  9
$DIMCLRT
 70
0
  9
$DIMTFAC
 40
0.5
  9
$DIMGAP
 40
0.1
  9
$DIMJUST
 70
0
  9
$DIMSD1
 70
0
  9
$DIMSD2
 70
0
  9
$DIMTOLJ
 70
0
  9
$DIMTZIN
 70
8
  9
$DIMALTZ
 70
0
  9
$DIMALTTZ
 70
0
  9
$DIMUPT
 70
1
  9
$DIMDEC
 70
2
  9
$DIMTDEC
 70
2
  9
$DIMALTU
 70
2
  9
$DIMALTTD
 70
3
  9
$DIMTXSTY
  7
OpenSansCondensed-Light
  9
$DIMAUNIT
 70
0
  9
$DIMADEC
 70
2
  9
$DIMALTRND
 40
0.0
  9
$DIMAZIN
 70
3
  9
$DIMDSEP
 70
46
  9
$DIMATFIT
 70
3
  9
$DIMFRAC
 70
0
  9
$DIMLDRBLK
  1

  9
$DIMLUNIT
 70
2
  9
$DIMLWD
 70
-2
  9
$DIMLWE
 70
-2
  9
$DIMTMOVE
 70
2
  9
$DIMFXL
 40
1.0
  9
$DIMFXLON
 70
0
  9
$DIMJOGANG
 40
0.785398163397
  9
$DIMTFILL
 70
0
  9
$DIMTFILLCLR
 70
0
  9
$DIMARCSYM
 70
0
  9
$DIMLTYPE
  6

  9
$DIMLTEX1
  6

  9
$DIMLTEX2
  6

  9
$DIMTXTDIRECTION
 70
0
  9
$LUNITS
 70
2
  9
$LUPREC
 70
4
  9
$SKETCHINC
 40
1.0
  9
$FILLETRAD
 40
10.0
  9
$AUNITS
 70
0
  9
$AUPREC
 70
2
  9
$MENU
  1
.
  9
$ELEVATION
 40
0.0
  9
$PELEVATION
 40
0.0
  9
$THICKNESS
 40
0.0
  9
$LIMCHECK
 70
0
  9
$CHAMFERA
 40
0.0
  9
$CHAMFERB
 40
0.0
  9
$CHAMFERC
 40
0.0
  9
$CHAMFERD
 40
0.0
  9
$SKPOLY
 70
0
  9
$TDCREATE
 40
2461212.9301041667
  9
$TDUCREATE
 40
2458532.153996898
  9
$TDUPDATE
 40
2461212.9301041667
  9
$TDUUPDATE
 40
2458532.1544311
  9
$TDINDWG
 40
0.0
  9
$TDUSRTIMER
 40
0.0
  9
$USRTIMER
 70
1
  9
$ANGBASE
 50
0.0
  9
$ANGDIR
 70
0
  9
$PDMODE
 70
0
  9
$PDSIZE
 40
0.0
  9
$PLINEWID
 40
0.0
  9
$SPLFRAME
 70
0
  9
$SPLINETYPE
 70
6
  9
$SPLINESEGS
 70
8
  9
$HANDSEED
  5
1F7
  9
$SURFTAB1
 70
6
  9
$SURFTAB2
 70
6
  9
$SURFTYPE
 70
6
  9
$SURFU
 70
6
  9
$SURFV
 70
6
  9
$UCSBASE
  2

  9
$UCSNAME
  2

  9
$UCSORG
 10
0.0
 20
0.0
 30
0.0
  9
$UCSXDIR
 10
1.0
 20
0.0
 30
0.0
  9
$UCSYDIR
 10
0.0
 20
1.0
 30
0.0
  9
$UCSORTHOREF
  2

  9
$UCSORTHOVIEW
 70
0
  9
$UCSORGTOP
 10
0.0
 20
0.0
 30
0.0
  9
$UCSORGBOTTOM
 10
0.0
 20
0.0
 30
0.0
  9
$UCSORGLEFT
 10
0.0
 20
0.0
 30
0.0
  9
$UCSORGRIGHT
 10
0.0
 20
0.0
 30
0.0
  9
$UCSORGFRONT
 10
0.0
 20
0.0
 30
0.0
  9
$UCSORGBACK
 10
0.0
 20
0.0
 30
0.0
  9
$PUCSBASE
  2

  9
$PUCSNAME
  2

  9
$PUCSORG
 10
0.0
 20
0.0
 30
0.0
  9
$PUCSXDIR
 10
1.0
 20
0.0
 30
0.0
  9
$PUCSYDIR
 10
0.0
 20
1.0
 30
0.0
  9
$PUCSORTHOREF
  2

  9
$PUCSORTHOVIEW
 70
0
  9
$PUCSORGTOP
 10
0.0
 20
0.0
 30
0.0
  9
$PUCSORGBOTTOM
 10
0.0
 20
0.0
 30
0.0
  9
$PUCSORGLEFT
 10
0.0
 20
0.0
 30
0.0
  9
$PUCSORGRIGHT
 10
0.0
 20
0.0
 30
0.0
  9
$PUCSORGFRONT
 10
0.0
 20
0.0
 30
0.0
  9
$PUCSORGBACK
 10
0.0
 20
0.0
 30
0.0
  9
$USERI1
 70
0
  9
$USERI2
 70
0
  9
$USERI3
 70
0
  9
$USERI4
 70
0
  9
$USERI5
 70
0
  9
$USERR1
 40
0.0
  9
$USERR2
 40
0.0
  9
$USERR3
 40
0.0
  9
$USERR4
 40
0.0
  9
$USERR5
 40
0.0
  9
$WORLDVIEW
 70
1
  9
$SHADEDGE
 70
3
  9
$SHADEDIF
 70
70
  9
$TILEMODE
 70
1
  9
$MAXACTVP
 70
64
  9
$PINSBASE
 10
0.0
 20
0.0
 30
0.0
  9
$PLIMCHECK
 70
0
  9
$PEXTMIN
 10
1e+20
 20
1e+20
 30
1e+20
  9
$PEXTMAX
 10
-1e+20
 20
-1e+20
 30
-1e+20
  9
$PLIMMIN
 10
0.0
 20
0.0
  9
$PLIMMAX
 10
420.0
 20
297.0
  9
$UNITMODE
 70
0
  9
$VISRETAIN
 70
1
  9
$PLINEGEN
 70
0
  9
$PSLTSCALE
 70
1
  9
$TREEDEPTH
 70
3020
  9
$CMLSTYLE
  2
Standard
  9
$CMLJUST
 70
0
  9
$CMLSCALE
 40
20.0
  9
$PROXYGRAPHICS
 70
1
  9
$MEASUREMENT
 70
1
  9
$CELWEIGHT
370
-1
  9
$ENDCAPS
280
0
  9
$JOINSTYLE
280
0
  9
$LWDISPLAY
290
0
  9
$INSUNITS
 70
6
  9
$HYPERLINKBASE
  1

  9
$STYLESHEET
  1

  9
$XEDIT
290
1
  9
$CEPSNTYPE
380
0
  9
$PSTYLEMODE
290
1
  9
$FINGERPRINTGUID
  2
{03728495-E22A-45E8-B661-E80A467F1C91}
  9
$VERSIONGUID
  2
{5CCDDB56-2B07-4844-BA8B-BCA9A6C75E53}
  9
$EXTNAMES
290
1
  9
$PSVPSCALE
 40
0.0
  9
$OLESTARTUP
290
0
  9
$SORTENTS
280
127
  9
$INDEXCTL
280
0
  9
$HIDETEXT
280
1
  9
$XCLIPFRAME
280
1
  9
$HALOGAP
280
0
  9
$OBSCOLOR
 70
257
  9
$OBSLTYPE
280
0
  9
$INTERSECTIONDISPLAY
280
0
  9
$INTERSECTIONCOLOR
 70
257
  9
$DIMASSOC
280
2
  9
$PROJECTNAME
  1

  9
$CAMERADISPLAY
290
0
  9
$LENSLENGTH
 40
50.0
  9
$CAMERAHEIGHT
 40
0.0
  9
$STEPSPERSEC
 40
24.0
  9
$STEPSIZE
 40
100.0
  9
$3DDWFPREC
 40
2.0
  9
$PSOLWIDTH
 40
0.005
  9
$PSOLHEIGHT
 40
0.08
  9
$LOFTANG1
 40
1.570796326795
  9
$LOFTANG2
 40
1.570796326795
  9
$LOFTMAG1
 40
0.0
  9
$LOFTMAG2
 40
0.0
  9
$LOFTPARAM
 70
7
  9
$LOFTNORMALS
280
1
  9
$LATITUDE
 40
37.795
  9
$LONGITUDE
 40
-122.394
  9
$NORTHDIRECTION
 40
0.0
  9
$TIMEZONE
 70
-8000
  9
$LIGHTGLYPHDISPLAY
280
1
  9
$TILEMODELIGHTSYNCH
280
1
  9
$CMATERIAL
347
20
  9
$SOLIDHIST
280
0
  9
$SHOWHIST
280
1
  9
$DWFFRAME
280
2
  9
$DGNFRAME
280
2
  9
$REALWORLDSCALE
290
1
  9
$INTERFERECOLOR
 62
256
  9
$CSHADOW
280
0
  9
$SHADOWPLANELOCATION
 40
0.0
  0
ENDSEC
  0
SECTION
  2
CLASSES
  0
CLASS
  1
ACDBDICTIONARYWDFLT
  2
AcDbDictionaryWithDefault
  3
ObjectDBX Classes
 90
0
 91
0
280
0
281
0
  0
CLASS
  1
SUN
  2
AcDbSun
  3
SCENEOE
 90
1153
 91
0
280
0
281
0
  0
CLASS
  1
VISUALSTYLE
  2
AcDbVisualStyle
  3
ObjectDBX Classes
 90
4095
 91
0
280
0
281
0
  0
CLASS
  1
MATERIAL
  2
AcDbMaterial
  3
ObjectDBX Classes
 90
1153
 91
0
280
0
281
0
  0
CLASS
  1
SCALE
  2
AcDbScale
  3
ObjectDBX Classes
 90
1153
 91
0
280
0
281
0
  0
CLASS
  1
TABLESTYLE
  2
AcDbTableStyle
  3
ObjectDBX Classes
 90
4095
 91
0
280
0
281
0
  0
CLASS
  1
MLEADERSTYLE
  2
AcDbMLeaderStyle
  3
ACDB_MLEADERSTYLE_CLASS
 90
4095
 91
0
280
0
281
0
  0
CLASS
  1
DICTIONARYVAR
  2
AcDbDictionaryVar
  3
ObjectDBX Classes
 90
0
 91
0
280
0
281
0
  0
CLASS
  1
CELLSTYLEMAP
  2
AcDbCellStyleMap
  3
ObjectDBX Classes
 90
1152
 91
0
280
0
281
0
  0
CLASS
  1
MENTALRAYRENDERSETTINGS
  2
AcDbMentalRayRenderSettings
  3
SCENEOE
 90
1024
 91
0
280
0
281
0
  0
CLASS
  1
ACDBDETAILVIEWSTYLE
  2
AcDbDetailViewStyle
  3
ObjectDBX Classes
 90
1025
 91
0
280
0
281
0
  0
CLASS
  1
ACDBSECTIONVIEWSTYLE
  2
AcDbSectionViewStyle
  3
ObjectDBX Classes
 90
1025
 91
0
280
0
281
0
  0
CLASS
  1
RASTERVARIABLES
  2
AcDbRasterVariables
  3
ISM
 90
0
 91
0
280
0
281
0
  0
CLASS
  1
ACDBPLACEHOLDER
  2
AcDbPlaceHolder
  3
ObjectDBX Classes
 90
0
 91
0
280
0
281
0
  0
CLASS
  1
LAYOUT
  2
AcDbLayout
  3
ObjectDBX Classes
 90
0
 91
0
280
0
281
0
  0
ENDSEC
  0
SECTION
  2
TABLES
  0
TABLE
  2
VPORT
  5
8
330
0
100
AcDbSymbolTable
 70
1
  0
VPORT
  5
23
330
8
100
AcDbSymbolTableRecord
100
AcDbViewportTableRecord
  2
*Active
 70
0
 10
0.0
 20
0.0
 11
1.0
 21
1.0
 12
0.0
 22
0.0
 13
0.0
 23
0.0
 14
0.5
 24
0.5
 15
0.5
 25
0.5
 16
0.0
 26
0.0
 36
1.0
 17
0.0
 27
0.0
 37
0.0
 40
1000.0
 41
1.34
 42
50.0
 43
0.0
 44
0.0
 50
0.0
 51
0.0
 71
0
 72
1000
 73
1
 74
3
 75
0
 76
0
 77
0
 78
0
281
0
 65
0
146
0.0
  0
ENDTAB
  0
TABLE
  2
LTYPE
  5
2
330
0
100
AcDbSymbolTable
 70
21
  0
LTYPE
  5
24
330
2
100
AcDbSymbolTableRecord
100
AcDbLinetypeTableRecord
  2
ByBlock
 70
0
  3

 72
65
 73
0
 40
0.0
  0
LTYPE
  5
25
330
2
100
AcDbSymbolTableRecord
100
AcDbLinetypeTableRecord
  2
ByLayer
 70
0
  3

 72
65
 73
0
 40
0.0
  0
LTYPE
  5
26
330
2
100
AcDbSymbolTableRecord
100
AcDbLinetypeTableRecord
  2
Continuous
 70
0
  3

 72
65
 73
0
 40
0.0
  0
LTYPE
  5
2F
330
2
100
AcDbSymbolTableRecord
100
AcDbLinetypeTableRecord
  2
CENTER
 70
0
  3
Center ____ _ ____ _ ____ _ ____ _ ____ _ ____
 72
65
 73
4
 40
5.08
 49
3.175
 74
0
 49
-0.635
 74
0
 49
0.635
 74
0
 49
-0.635
 74
0
  0
LTYPE
  5
30
330
2
100
AcDbSymbolTableRecord
100
AcDbLinetypeTableRecord
  2
CENTERX2
 70
0
  3
Center (2x) ________  __  ________  __  ________
 72
65
 73
4
 40
8.89
 49
6.35
 74
0
 49
-0.635
 74
0
 49
1.27
 74
0
 49
-0.635
 74
0
  0
LTYPE
  5
31
330
2
100
AcDbSymbolTableRecord
100
AcDbLinetypeTableRecord
  2
CENTER2
 70
0
  3
Center (.5x) ____ _ ____ _ ____ _ ____ _ ____
 72
65
 73
4
 40
2.54
 49
1.587
 74
0
 49
-0.318
 74
0
 49
0.318
 74
0
 49
-0.318
 74
0
  0
LTYPE
  5
32
330
2
100
AcDbSymbolTableRecord
100
AcDbLinetypeTableRecord
  2
DASHED
 70
0
  3
Dashed __ __ __ __ __ __ __ __ __ __ __ __ __ _
 72
65
 73
2
 40
1.524
 49
1.27
 74
0
 49
-0.254
 74
0
  0
LTYPE
  5
33
330
2
100
AcDbSymbolTableRecord
100
AcDbLinetypeTableRecord
  2
DASHEDX2
 70
0
  3
Dashed (2x) ____  ____  ____  ____  ____  ____
 72
65
 73
2
 40
3.048
 49
2.54
 74
0
 49
-0.508
 74
0
  0
LTYPE
  5
34
330
2
100
AcDbSymbolTableRecord
100
AcDbLinetypeTableRecord
  2
DASHED2
 70
0
  3
Dashed (.5x) _ _ _ _ _ _ _ _ _ _ _ _ _ _
 72
65
 73
2
 40
0.762
 49
0.635
 74
0
 49
-0.127
 74
0
  0
LTYPE
  5
35
330
2
100
AcDbSymbolTableRecord
100
AcDbLinetypeTableRecord
  2
PHANTOM
 70
0
  3
Phantom ______  __  __  ______  __  __  ______
 72
65
 73
6
 40
6.35
 49
3.175
 74
0
 49
-0.635
 74
0
 49
0.635
 74
0
 49
-0.635
 74
0
 49
0.635
 74
0
 49
-0.635
 74
0
  0
LTYPE
  5
36
330
2
100
AcDbSymbolTableRecord
100
AcDbLinetypeTableRecord
  2
PHANTOMX2
 70
0
  3
Phantom (2x)____________    ____    ____    ____________
 72
65
 73
6
 40
10.795
 49
6.35
 74
0
 49
-0.635
 74
0
 49
1.27
 74
0
 49
-0.635
 74
0
 49
1.27
 74
0
 49
-0.635
 74
0
  0
LTYPE
  5
37
330
2
100
AcDbSymbolTableRecord
100
AcDbLinetypeTableRecord
  2
PHANTOM2
 70
0
  3
Phantom (.5x) ___ _ _ ___ _ _ ___ _ _ ___ _ _ ___
 72
65
 73
6
 40
3.175
 49
1.587
 74
0
 49
-0.318
 74
0
 49
0.318
 74
0
 49
-0.318
 74
0
 49
0.318
 74
0
 49
-0.318
 74
0
  0
LTYPE
  5
38
330
2
100
AcDbSymbolTableRecord
100
AcDbLinetypeTableRecord
  2
DASHDOT
 70
0
  3
Dash dot __ . __ . __ . __ . __ . __ . __ . __
 72
65
 73
4
 40
3.556
 49
2.54
 74
0
 49
-0.508
 74
0
 49
0.0
 74
0
 49
-0.508
 74
0
  0
LTYPE
  5
39
330
2
100
AcDbSymbolTableRecord
100
AcDbLinetypeTableRecord
  2
DASHDOTX2
 70
0
  3
Dash dot (2x) ____  .  ____  .  ____  .  ____
 72
65
 73
4
 40
6.096
 49
5.08
 74
0
 49
-0.508
 74
0
 49
0.0
 74
0
 49
-0.508
 74
0
  0
LTYPE
  5
3A
330
2
100
AcDbSymbolTableRecord
100
AcDbLinetypeTableRecord
  2
DASHDOT2
 70
0
  3
Dash dot (.5x) _ . _ . _ . _ . _ . _ . _ . _
 72
65
 73
4
 40
1.778
 49
1.27
 74
0
 49
-0.254
 74
0
 49
0.0
 74
0
 49
-0.254
 74
0
  0
LTYPE
  5
3B
330
2
100
AcDbSymbolTableRecord
100
AcDbLinetypeTableRecord
  2
DOT
 70
0
  3
Dot .  .  .  .  .  .  .  .  .  .  .  .  .  .  .  .
 72
65
 73
2
 40
0.508
 49
0.0
 74
0
 49
-0.508
 74
0
  0
LTYPE
  5
3C
330
2
100
AcDbSymbolTableRecord
100
AcDbLinetypeTableRecord
  2
DOTX2
 70
0
  3
Dot (2x) .    .    .    .    .    .    .    . 
 72
65
 73
2
 40
1.016
 49
0.0
 74
0
 49
-1.016
 74
0
  0
LTYPE
  5
3D
330
2
100
AcDbSymbolTableRecord
100
AcDbLinetypeTableRecord
  2
DOT2
 70
0
  3
Dot (.5) . . . . . . . . . . . . . . . . . . . 
 72
65
 73
2
 40
0.254
 49
0.0
 74
0
 49
-0.254
 74
0
  0
LTYPE
  5
3E
330
2
100
AcDbSymbolTableRecord
100
AcDbLinetypeTableRecord
  2
DIVIDE
 70
0
  3
Divide __ . . __ . . __ . . __ . . __ . . __
 72
65
 73
6
 40
4.064
 49
2.54
 74
0
 49
-0.508
 74
0
 49
0.0
 74
0
 49
-0.508
 74
0
 49
0.0
 74
0
 49
-0.508
 74
0
  0
LTYPE
  5
3F
330
2
100
AcDbSymbolTableRecord
100
AcDbLinetypeTableRecord
  2
DIVIDEX2
 70
0
  3
Divide (2x) ____  . .  ____  . .  ____  . .  ____
 72
65
 73
6
 40
6.604
 49
5.08
 74
0
 49
-0.508
 74
0
 49
0.0
 74
0
 49
-0.508
 74
0
 49
0.0
 74
0
 49
-0.508
 74
0
  0
LTYPE
  5
40
330
2
100
AcDbSymbolTableRecord
100
AcDbLinetypeTableRecord
  2
DIVIDE2
 70
0
  3
Divide(.5x) _ . _ . _ . _ . _ . _ . _ . _
 72
65
 73
6
 40
2.032
 49
1.27
 74
0
 49
-0.254
 74
0
 49
0.0
 74
0
 49
-0.254
 74
0
 49
0.0
 74
0
 49
-0.254
 74
0
  0
ENDTAB
  0
TABLE
  2
LAYER
  5
1
330
0
100
AcDbSymbolTable
 70
14
  0
LAYER
  5
27
330
1
100
AcDbSymbolTableRecord
100
AcDbLayerTableRecord
  2
0
 70
0
 62
7
  6
Continuous
370
-3
390
13
347
21
  0
LAYER
  5
28
330
1
100
AcDbSymbolTableRecord
100
AcDbLayerTableRecord
  2
Defpoints
 70
0
 62
7
  6
Continuous
290
0
370
-3
390
13
347
21
  0
LAYER
  5
8A
330
1
100
AcDbSymbolTableRecord
100
AcDbLayerTableRecord
  2
0-MARCO
 70
0
 62
7
  6
Continuous
370
-3
390
13
347
21
  0
LAYER
  5
8B
330
1
100
AcDbSymbolTableRecord
100
AcDbLayerTableRecord
  2
TEXTO
 70
0
 62
7
  6
Continuous
370
-3
390
13
347
21
  0
LAYER
  5
8C
330
1
100
AcDbSymbolTableRecord
100
AcDbLayerTableRecord
  2
TEXTO-SPEC
 70
0
 62
8
  6
Continuous
370
-3
390
13
347
21
  0
LAYER
  5
8D
330
1
100
AcDbSymbolTableRecord
100
AcDbLayerTableRecord
  2
TEXTO-TITULO
 70
0
 62
7
  6
Continuous
370
-3
390
13
347
21
  0
LAYER
  5
8E
330
1
100
AcDbSymbolTableRecord
100
AcDbLayerTableRecord
  2
AT-BARRAS
 70
0
 62
1
  6
Continuous
370
-3
390
13
347
21
  0
LAYER
  5
8F
330
1
100
AcDbSymbolTableRecord
100
AcDbLayerTableRecord
  2
AT-EQUIPOS
 70
0
 62
5
  6
Continuous
370
-3
390
13
347
21
  0
LAYER
  5
90
330
1
100
AcDbSymbolTableRecord
100
AcDbLayerTableRecord
  2
TIERRA-MALLA
 70
0
 62
3
  6
DASHED
370
-3
390
13
347
21
  0
LAYER
  5
91
330
1
100
AcDbSymbolTableRecord
100
AcDbLayerTableRecord
  2
COTAS
 70
0
 62
2
  6
Continuous
370
-3
390
13
347
21
  0
LAYER
  5
92
330
1
100
AcDbSymbolTableRecord
100
AcDbLayerTableRecord
  2
EJES
 70
0
 62
8
  6
CENTER
370
-3
390
13
347
21
  0
LAYER
  5
93
330
1
100
AcDbSymbolTableRecord
100
AcDbLayerTableRecord
  2
ESTRUCTURAS
 70
0
 62
9
  6
Continuous
370
-3
390
13
347
21
  0
LAYER
  5
94
330
1
100
AcDbSymbolTableRecord
100
AcDbLayerTableRecord
  2
CERCO
 70
0
 62
8
  6
DASHED2
370
-3
390
13
347
21
  0
LAYER
  5
95
330
1
100
AcDbSymbolTableRecord
100
AcDbLayerTableRecord
  2
CIVIL
 70
0
 62
6
  6
DASHDOT
370
-3
390
13
347
21
  0
ENDTAB
  0
TABLE
  2
STYLE
  5
5
330
0
100
AcDbSymbolTable
 70
26
  0
STYLE
  5
29
330
5
100
AcDbSymbolTableRecord
100
AcDbTextStyleTableRecord
  2
Standard
 70
0
 40
0.0
 41
1.0
 50
0.0
 71
0
 42
2.5
  3
txt
  4

  0
STYLE
  5
41
330
5
100
AcDbSymbolTableRecord
100
AcDbTextStyleTableRecord
  2
OpenSans-Light
 70
0
 40
0.0
 41
1.0
 50
0.0
 71
0
 42
2.5
  3
OpenSans-Light.ttf
  4

  0
STYLE
  5
42
330
5
100
AcDbSymbolTableRecord
100
AcDbTextStyleTableRecord
  2
OpenSans-Light-Italic
 70
0
 40
0.0
 41
1.0
 50
0.0
 71
0
 42
2.5
  3
OpenSans-LightItalic.ttf
  4

  0
STYLE
  5
43
330
5
100
AcDbSymbolTableRecord
100
AcDbTextStyleTableRecord
  2
OpenSans
 70
0
 40
0.0
 41
1.0
 50
0.0
 71
0
 42
2.5
  3
OpenSans-Regular.ttf
  4

  0
STYLE
  5
44
330
5
100
AcDbSymbolTableRecord
100
AcDbTextStyleTableRecord
  2
OpenSans-Italic
 70
0
 40
0.0
 41
1.0
 50
0.0
 71
0
 42
2.5
  3
OpenSans-Italic.ttf
  4

  0
STYLE
  5
45
330
5
100
AcDbSymbolTableRecord
100
AcDbTextStyleTableRecord
  2
OpenSans-SemiBold
 70
0
 40
0.0
 41
1.0
 50
0.0
 71
0
 42
2.5
  3
OpenSans-SemiBold.ttf
  4

  0
STYLE
  5
46
330
5
100
AcDbSymbolTableRecord
100
AcDbTextStyleTableRecord
  2
OpenSans-SemiBoldItalic
 70
0
 40
0.0
 41
1.0
 50
0.0
 71
0
 42
2.5
  3
OpenSans-SemiBoldItalic.ttf
  4

  0
STYLE
  5
47
330
5
100
AcDbSymbolTableRecord
100
AcDbTextStyleTableRecord
  2
OpenSans-Bold
 70
0
 40
0.0
 41
1.0
 50
0.0
 71
0
 42
2.5
  3
OpenSans-Bold.ttf
  4

  0
STYLE
  5
48
330
5
100
AcDbSymbolTableRecord
100
AcDbTextStyleTableRecord
  2
OpenSans-BoldItalic
 70
0
 40
0.0
 41
1.0
 50
0.0
 71
0
 42
2.5
  3
OpenSans-BoldItalic.ttf
  4

  0
STYLE
  5
49
330
5
100
AcDbSymbolTableRecord
100
AcDbTextStyleTableRecord
  2
OpenSans-ExtraBold
 70
0
 40
0.0
 41
1.0
 50
0.0
 71
0
 42
2.5
  3
OpenSans-ExtraBold.ttf
  4

  0
STYLE
  5
4A
330
5
100
AcDbSymbolTableRecord
100
AcDbTextStyleTableRecord
  2
OpenSans-ExtraBoldItalic
 70
0
 40
0.0
 41
1.0
 50
0.0
 71
0
 42
2.5
  3
OpenSans-ExtraBoldItalic.ttf
  4

  0
STYLE
  5
4B
330
5
100
AcDbSymbolTableRecord
100
AcDbTextStyleTableRecord
  2
OpenSansCondensed-Bold
 70
0
 40
0.0
 41
1.0
 50
0.0
 71
0
 42
2.5
  3
OpenSansCondensed-Bold.ttf
  4

  0
STYLE
  5
4C
330
5
100
AcDbSymbolTableRecord
100
AcDbTextStyleTableRecord
  2
OpenSansCondensed-Light
 70
0
 40
0.0
 41
1.0
 50
0.0
 71
0
 42
2.5
  3
OpenSansCondensed-Light.ttf
  4

  0
STYLE
  5
4D
330
5
100
AcDbSymbolTableRecord
100
AcDbTextStyleTableRecord
  2
OpenSansCondensed-Italic
 70
0
 40
0.0
 41
1.0
 50
0.0
 71
0
 42
2.5
  3
OpenSansCondensed-LightItalic.ttf
  4

  0
STYLE
  5
4E
330
5
100
AcDbSymbolTableRecord
100
AcDbTextStyleTableRecord
  2
LiberationSans
 70
0
 40
0.0
 41
1.0
 50
0.0
 71
0
 42
2.5
  3
LiberationSans-Regular.ttf
  4

  0
STYLE
  5
4F
330
5
100
AcDbSymbolTableRecord
100
AcDbTextStyleTableRecord
  2
LiberationSans-Bold
 70
0
 40
0.0
 41
1.0
 50
0.0
 71
0
 42
2.5
  3
LiberationSans-Bold.ttf
  4

  0
STYLE
  5
50
330
5
100
AcDbSymbolTableRecord
100
AcDbTextStyleTableRecord
  2
LiberationSans-BoldItalic
 70
0
 40
0.0
 41
1.0
 50
0.0
 71
0
 42
2.5
  3
LiberationSans-BoldItalic.ttf
  4

  0
STYLE
  5
51
330
5
100
AcDbSymbolTableRecord
100
AcDbTextStyleTableRecord
  2
LiberationSans-Italic
 70
0
 40
0.0
 41
1.0
 50
0.0
 71
0
 42
2.5
  3
LiberationSans-Italic.ttf
  4

  0
STYLE
  5
52
330
5
100
AcDbSymbolTableRecord
100
AcDbTextStyleTableRecord
  2
LiberationSerif
 70
0
 40
0.0
 41
1.0
 50
0.0
 71
0
 42
2.5
  3
LiberationSerif-Regular.ttf
  4

  0
STYLE
  5
53
330
5
100
AcDbSymbolTableRecord
100
AcDbTextStyleTableRecord
  2
LiberationSerif-Bold
 70
0
 40
0.0
 41
1.0
 50
0.0
 71
0
 42
2.5
  3
LiberationSerif-Bold.ttf
  4

  0
STYLE
  5
54
330
5
100
AcDbSymbolTableRecord
100
AcDbTextStyleTableRecord
  2
LiberationSerif-BoldItalic
 70
0
 40
0.0
 41
1.0
 50
0.0
 71
0
 42
2.5
  3
LiberationSerif-BoldItalic.ttf
  4

  0
STYLE
  5
55
330
5
100
AcDbSymbolTableRecord
100
AcDbTextStyleTableRecord
  2
LiberationSerif-Italic
 70
0
 40
0.0
 41
1.0
 50
0.0
 71
0
 42
2.5
  3
LiberationSerif-Italic.ttf
  4

  0
STYLE
  5
56
330
5
100
AcDbSymbolTableRecord
100
AcDbTextStyleTableRecord
  2
LiberationMono
 70
0
 40
0.0
 41
1.0
 50
0.0
 71
0
 42
2.5
  3
LiberationMono-Regular.ttf
  4

  0
STYLE
  5
57
330
5
100
AcDbSymbolTableRecord
100
AcDbTextStyleTableRecord
  2
LiberationMono-Bold
 70
0
 40
0.0
 41
1.0
 50
0.0
 71
0
 42
2.5
  3
LiberationMono-Bold.ttf
  4

  0
STYLE
  5
58
330
5
100
AcDbSymbolTableRecord
100
AcDbTextStyleTableRecord
  2
LiberationMono-BoldItalic
 70
0
 40
0.0
 41
1.0
 50
0.0
 71
0
 42
2.5
  3
LiberationMono-BoldItalic.ttf
  4

  0
STYLE
  5
59
330
5
100
AcDbSymbolTableRecord
100
AcDbTextStyleTableRecord
  2
LiberationMono-Italic
 70
0
 40
0.0
 41
1.0
 50
0.0
 71
0
 42
2.5
  3
LiberationMono-Italic.ttf
  4

  0
ENDTAB
  0
TABLE
  2
VIEW
  5
7
330
0
100
AcDbSymbolTable
 70
0
  0
ENDTAB
  0
TABLE
  2
UCS
  5
6
330
0
100
AcDbSymbolTable
 70
0
  0
ENDTAB
  0
TABLE
  2
APPID
  5
3
330
0
100
AcDbSymbolTable
 70
3
  0
APPID
  5
2A
330
3
100
AcDbSymbolTableRecord
100
AcDbRegAppTableRecord
  2
ACAD
 70
0
  0
APPID
  5
1F4
330
3
100
AcDbSymbolTableRecord
100
AcDbRegAppTableRecord
  2
HATCHBACKGROUNDCOLOR
 70
0
  0
APPID
  5
1F5
330
3
100
AcDbSymbolTableRecord
100
AcDbRegAppTableRecord
  2
EZDXF
 70
0
  0
ENDTAB
  0
TABLE
  2
DIMSTYLE
  5
4
330
0
100
AcDbSymbolTable
 70
12
100
AcDbDimStyleTable
  0
DIMSTYLE
105
2B
330
4
100
AcDbSymbolTableRecord
100
AcDbDimStyleTableRecord
  2
Standard
 70
0
 40
1.0
 41
2.5
 42
0.625
 43
3.75
 44
1.25
 45
0.0
 46
0.0
 47
0.0
 48
0.0
 49
2.5
140
2.5
141
2.5
142
0.0
143
0.03937007874
144
1.0
145
0.0
146
1.0
147
0.625
148
0.0
 69
0
 70
0
 71
0
 72
0
 73
0
 74
0
 75
0
 76
0
 77
1
 78
8
 79
3
170
0
171
3
172
1
173
0
174
0
175
0
176
0
177
0
178
0
179
2
271
2
272
2
273
2
274
3
275
0
276
0
277
2
278
44
279
0
280
0
281
0
282
0
283
0
284
8
285
0
286
0
288
0
289
3
290
0
371
-2
372
-2
  0
DIMSTYLE
105
73
330
4
100
AcDbSymbolTableRecord
100
AcDbDimStyleTableRecord
  2
EZDXF
 70
0
 40
1.0
 41
0.175
 42
0.125
 43
3.75
 44
0.375
 45
0.0
 46
0.0
 47
0.0
 48
0.0
 49
2.5
140
0.25
141
2.5
142
0.0
143
0.03937007874
144
100.0
145
0.0
146
0.5
147
0.1
148
0.0
 69
0
 70
0
 71
0
 72
0
 73
0
 74
0
 75
0
 76
0
 77
1
 78
12
 79
3
170
0
171
3
172
1
173
0
174
0
175
0
176
0
177
0
178
0
179
2
271
2
272
2
273
2
274
3
275
0
276
0
277
2
278
46
279
2
280
0
281
0
282
0
283
0
284
8
285
0
286
0
288
1
289
3
290
0
340
4C
342
74
371
-2
372
-2
  0
DIMSTYLE
105
7C
330
4
100
AcDbSymbolTableRecord
100
AcDbDimStyleTableRecord
  2
EZ_M_100_H25_CM
 70
0
 40
1.0
 41
0.25
 42
0.125
 43
3.75
 44
0.375
 45
0.0
 46
0.0
 47
0.0
 48
0.0
 49
2.5
140
0.25
141
2.5
142
0.125
143
0.03937007874
144
100.0
145
0.0
146
0.5
147
0.1
148
0.0
 69
0
 70
0
 71
0
 72
0
 73
0
 74
0
 75
0
 76
0
 77
1
 78
12
 79
3
170
0
171
3
172
1
173
0
174
0
175
0
176
0
177
0
178
0
179
2
271
2
272
2
273
2
274
3
275
0
276
0
277
2
278
46
279
2
280
0
281
0
282
0
283
0
284
8
285
0
286
0
288
1
289
3
290
0
340
4C
371
-2
372
-2
  0
DIMSTYLE
105
7D
330
4
100
AcDbSymbolTableRecord
100
AcDbDimStyleTableRecord
  2
EZ_M_50_H25_CM
 70
0
 40
1.0
 41
0.125
 42
0.0625
 43
3.75
 44
0.1875
 45
0.0
 46
0.0
 47
0.0
 48
0.0
 49
2.5
140
0.125
141
2.5
142
0.0625
143
0.03937007874
144
100.0
145
0.0
146
0.5
147
0.05
148
0.0
 69
0
 70
0
 71
0
 72
0
 73
0
 74
0
 75
0
 76
0
 77
1
 78
12
 79
3
170
0
171
3
172
1
173
0
174
0
175
0
176
0
177
0
178
0
179
2
271
2
272
2
273
2
274
3
275
0
276
0
277
2
278
46
279
2
280
0
281
0
282
0
283
0
284
8
285
0
286
0
288
1
289
3
290
0
340
4C
371
-2
372
-2
  0
DIMSTYLE
105
7E
330
4
100
AcDbSymbolTableRecord
100
AcDbDimStyleTableRecord
  2
EZ_M_25_H25_CM
 70
0
 40
1.0
 41
0.0625
 42
0.03125
 43
3.75
 44
0.09375
 45
0.0
 46
0.0
 47
0.0
 48
0.0
 49
2.5
140
0.0625
141
2.5
142
0.03125
143
0.03937007874
144
100.0
145
0.0
146
0.5
147
0.025
148
0.0
 69
0
 70
0
 71
0
 72
0
 73
0
 74
0
 75
0
 76
0
 77
1
 78
12
 79
3
170
0
171
3
172
1
173
0
174
0
175
0
176
0
177
0
178
0
179
2
271
2
272
2
273
2
274
3
275
0
276
0
277
2
278
46
279
2
280
0
281
0
282
0
283
0
284
8
285
0
286
0
288
1
289
3
290
0
340
4C
371
-2
372
-2
  0
DIMSTYLE
105
7F
330
4
100
AcDbSymbolTableRecord
100
AcDbDimStyleTableRecord
  2
EZ_M_20_H25_CM
 70
0
 40
1.0
 41
0.05
 42
0.025
 43
3.75
 44
0.07500000000000001
 45
0.0
 46
0.0
 47
0.0
 48
0.0
 49
2.5
140
0.05
141
2.5
142
0.025
143
0.03937007874
144
100.0
145
0.0
146
0.5
147
0.020000000000000004
148
0.0
 69
0
 70
0
 71
0
 72
0
 73
0
 74
0
 75
0
 76
0
 77
1
 78
12
 79
3
170
0
171
3
172
1
173
0
174
0
175
0
176
0
177
0
178
0
179
2
271
2
272
2
273
2
274
3
275
0
276
0
277
2
278
46
279
2
280
0
281
0
282
0
283
0
284
8
285
0
286
0
288
1
289
3
290
0
340
4C
371
-2
372
-2
  0
DIMSTYLE
105
80
330
4
100
AcDbSymbolTableRecord
100
AcDbDimStyleTableRecord
  2
EZ_M_10_H25_CM
 70
0
 40
1.0
 41
0.025
 42
0.0125
 43
3.75
 44
0.037500000000000006
 45
0.0
 46
0.0
 47
0.0
 48
0.0
 49
2.5
140
0.025
141
2.5
142
0.0125
143
0.03937007874
144
100.0
145
0.0
146
0.5
147
0.010000000000000002
148
0.0
 69
0
 70
0
 71
0
 72
0
 73
0
 74
0
 75
0
 76
0
 77
1
 78
12
 79
3
170
0
171
3
172
1
173
0
174
0
175
0
176
0
177
0
178
0
179
2
271
2
272
2
273
2
274
3
275
0
276
0
277
2
278
46
279
2
280
0
281
0
282
0
283
0
284
8
285
0
286
0
288
1
289
3
290
0
340
4C
371
-2
372
-2
  0
DIMSTYLE
105
81
330
4
100
AcDbSymbolTableRecord
100
AcDbDimStyleTableRecord
  2
EZ_M_5_H25_CM
 70
0
 40
1.0
 41
0.0125
 42
0.00625
 43
3.75
 44
0.018750000000000003
 45
0.0
 46
0.0
 47
0.0
 48
0.0
 49
2.5
140
0.0125
141
2.5
142
0.00625
143
0.03937007874
144
100.0
145
0.0
146
0.5
147
0.005000000000000001
148
0.0
 69
0
 70
0
 71
0
 72
0
 73
0
 74
0
 75
0
 76
0
 77
1
 78
12
 79
3
170
0
171
3
172
1
173
0
174
0
175
0
176
0
177
0
178
0
179
2
271
2
272
2
273
2
274
3
275
0
276
0
277
2
278
46
279
2
280
0
281
0
282
0
283
0
284
8
285
0
286
0
288
1
289
3
290
0
340
4C
371
-2
372
-2
  0
DIMSTYLE
105
82
330
4
100
AcDbSymbolTableRecord
100
AcDbDimStyleTableRecord
  2
EZ_M_1_H25_CM
 70
0
 40
1.0
 41
0.0025
 42
0.00125
 43
3.75
 44
0.00375
 45
0.0
 46
0.0
 47
0.0
 48
0.0
 49
2.5
140
0.0025
141
2.5
142
0.00125
143
0.03937007874
144
100.0
145
0.0
146
0.5
147
0.001
148
0.0
 69
0
 70
0
 71
0
 72
0
 73
0
 74
0
 75
0
 76
0
 77
1
 78
12
 79
3
170
0
171
3
172
1
173
0
174
0
175
0
176
0
177
0
178
0
179
2
271
2
272
2
273
2
274
3
275
0
276
0
277
2
278
46
279
2
280
0
281
0
282
0
283
0
284
8
285
0
286
0
288
1
289
3
290
0
340
4C
371
-2
372
-2
  0
DIMSTYLE
105
83
330
4
100
AcDbSymbolTableRecord
100
AcDbDimStyleTableRecord
  2
EZ_RADIUS
 70
0
 40
1.0
 41
0.25
 42
0.125
 43
3.75
 44
0.375
 45
0.0
 46
0.0
 47
0.0
 48
0.0
 49
2.5
140
0.25
141
0.0
142
0.0
143
0.03937007874
144
100.0
145
0.0
146
0.5
147
0.1
148
0.0
 69
0
 70
0
 71
0
 72
0
 73
0
 74
0
 75
0
 76
0
 77
1
 78
12
 79
3
170
0
171
3
172
0
173
0
174
0
175
0
176
0
177
0
178
0
179
2
271
2
272
2
273
2
274
3
275
0
276
0
277
2
278
46
279
1
280
0
281
0
282
0
283
0
284
8
285
0
286
0
288
1
289
3
290
0
340
4C
342
84
371
-2
372
-2
  0
DIMSTYLE
105
88
330
4
100
AcDbSymbolTableRecord
100
AcDbDimStyleTableRecord
  2
EZ_RADIUS_INSIDE
 70
0
 40
1.0
 41
0.25
 42
0.125
 43
3.75
 44
0.375
 45
0.0
 46
0.0
 47
0.0
 48
0.0
 49
2.5
140
0.25
141
0.0
142
0.0
143
0.03937007874
144
100.0
145
0.0
146
0.5
147
0.1
148
0.0
 69
0
 70
0
 71
0
 72
0
 73
0
 74
0
 75
0
 76
0
 77
0
 78
12
 79
3
170
0
171
3
172
0
173
0
174
1
175
0
176
0
177
0
178
0
179
2
271
2
272
2
273
2
274
3
275
0
276
0
277
2
278
46
279
0
280
0
281
0
282
0
283
0
284
8
285
0
286
0
288
1
289
0
290
0
340
4C
342
84
371
-2
372
-2
  0
DIMSTYLE
105
89
330
4
100
AcDbSymbolTableRecord
100
AcDbDimStyleTableRecord
  2
EZ_CURVED
 70
0
 40
1.0
 41
0.25
 42
0.125
 43
3.75
 44
0.375
 45
0.0
 46
0.0
 47
0.0
 48
0.0
 49
2.5
140
0.25
141
2.5
142
0.0
143
0.03937007874
144
100.0
145
0.0
146
0.5
147
0.1
148
0.0
 69
0
 70
0
 71
0
 72
0
 73
0
 74
0
 75
0
 76
0
 77
1
 78
12
 79
2
 90
2
170
0
171
3
172
1
173
0
174
0
175
0
176
0
177
0
178
0
179
2
271
2
272
2
273
2
274
3
275
0
276
0
277
2
278
46
279
2
280
0
281
0
282
0
283
0
284
8
285
0
286
0
288
1
289
3
290
0
340
4C
371
-2
372
-2
  0
ENDTAB
  0
TABLE
  2
BLOCK_RECORD
  5
9
330
0
100
AcDbSymbolTable
 70
9
  0
BLOCK_RECORD
  5
17
330
9
100
AcDbSymbolTableRecord
100
AcDbBlockTableRecord
  2
*Model_Space
340
1A
 70
0
280
1
281
0
  0
BLOCK_RECORD
  5
1B
330
9
100
AcDbSymbolTableRecord
100
AcDbBlockTableRecord
  2
*Paper_Space
340
1E
 70
0
280
1
281
0
  0
BLOCK_RECORD
  5
74
330
9
100
AcDbSymbolTableRecord
100
AcDbBlockTableRecord
  2
_ARCHTICK
340
0
 70
0
280
1
281
0
  0
BLOCK_RECORD
  5
78
330
9
100
AcDbSymbolTableRecord
100
AcDbBlockTableRecord
  2
_CLOSEDFILLED
340
0
 70
0
280
1
281
0
  0
BLOCK_RECORD
  5
84
330
9
100
AcDbSymbolTableRecord
100
AcDbBlockTableRecord
  2
_CLOSEDBLANK
340
0
 70
0
280
1
281
0
  0
BLOCK_RECORD
  5
10C
330
9
100
AcDbSymbolTableRecord
100
AcDbBlockTableRecord
  2
*D1
340
0
 70
0
280
1
281
0
  0
BLOCK_RECORD
  5
175
330
9
100
AcDbSymbolTableRecord
100
AcDbBlockTableRecord
  2
*D2
340
0
 70
0
280
1
281
0
  0
BLOCK_RECORD
  5
1B4
330
9
100
AcDbSymbolTableRecord
100
AcDbBlockTableRecord
  2
*D3
340
0
 70
0
280
1
281
0
  0
BLOCK_RECORD
  5
1C3
330
9
100
AcDbSymbolTableRecord
100
AcDbBlockTableRecord
  2
*D4
340
0
 70
0
280
1
281
0
  0
ENDTAB
  0
ENDSEC
  0
SECTION
  2
BLOCKS
  0
BLOCK
  5
18
330
17
100
AcDbEntity
  8
0
100
AcDbBlockBegin
  2
*Model_Space
 70
0
 10
0.0
 20
0.0
 30
0.0
  3
*Model_Space
  1

  0
ENDBLK
  5
19
330
17
100
AcDbEntity
  8
0
100
AcDbBlockEnd
  0
BLOCK
  5
1C
330
1B
100
AcDbEntity
  8
0
100
AcDbBlockBegin
  2
*Paper_Space
 70
0
 10
0.0
 20
0.0
 30
0.0
  3
*Paper_Space
  1

  0
ENDBLK
  5
1D
330
1B
100
AcDbEntity
  8
0
100
AcDbBlockEnd
  0
BLOCK
  5
75
330
74
100
AcDbEntity
  8
0
100
AcDbBlockBegin
  2
_ARCHTICK
 70
0
 10
0.0
 20
0.0
 30
0.0
  3
_ARCHTICK
  1

  0
LWPOLYLINE
  5
77
330
74
100
AcDbEntity
  8
0
  6
BYBLOCK
 62
0
100
AcDbPolyline
 90
2
 70
0
 43
0.15
 10
-0.5
 20
-0.5
 10
0.5
 20
0.5
  0
ENDBLK
  5
76
330
74
100
AcDbEntity
  8
0
100
AcDbBlockEnd
  0
BLOCK
  5
79
330
78
100
AcDbEntity
  8
0
100
AcDbBlockBegin
  2
_CLOSEDFILLED
 70
0
 10
0.0
 20
0.0
 30
0.0
  3
_CLOSEDFILLED
  1

  0
SOLID
  5
7B
330
78
100
AcDbEntity
  8
0
  6
BYBLOCK
 62
0
100
AcDbTrace
 10
-1.0
 20
0.16439898372402537
 30
0.0
 11
0.0
 21
0.0
 31
0.0
 12
-1.0
 22
-0.16439898372402537
 32
0.0
 13
-1.0
 23
-0.16439898372402537
 33
0.0
  0
ENDBLK
  5
7A
330
78
100
AcDbEntity
  8
0
100
AcDbBlockEnd
  0
BLOCK
  5
85
330
84
100
AcDbEntity
  8
0
100
AcDbBlockBegin
  2
_CLOSEDBLANK
 70
0
 10
0.0
 20
0.0
 30
0.0
  3
_CLOSEDBLANK
  1

  0
LWPOLYLINE
  5
87
330
84
100
AcDbEntity
  8
0
  6
BYBLOCK
 62
0
100
AcDbPolyline
 90
3
 70
1
 10
-1.0
 20
0.16439898372402537
 10
0.0
 20
0.0
 10
-1.0
 20
-0.16439898372402537
  0
ENDBLK
  5
86
330
84
100
AcDbEntity
  8
0
100
AcDbBlockEnd
  0
BLOCK
  5
10D
330
10C
100
AcDbEntity
  8
0
100
AcDbBlockBegin
  2
*D1
 70
1
 10
0.0
 20
0.0
 30
0.0
  3
*D1
  1

  0
LINE
  5
10F
330
10C
100
AcDbEntity
  8
0
100
AcDbLine
 10
356.2786
 20
458.23319999999995
 30
0.0
 11
339.05699999999996
 21
458.23319999999995
 31
0.0
  0
LINE
  5
110
330
10C
100
AcDbEntity
  8
0
100
AcDbLine
 10
356.2786
 20
485.1049
 30
0.0
 11
339.05699999999996
 21
485.1049
 31
0.0
  0
INSERT
  5
111
330
10C
100
AcDbEntity
  8
COTAS
100
AcDbBlockReference
  2
_ARCHTICK
 10
339.43199999999996
 20
458.23319999999995
 30
0.0
 41
0.175
 42
0.175
 50
270.0
  0
INSERT
  5
113
330
10C
100
AcDbEntity
  8
COTAS
100
AcDbBlockReference
  2
_ARCHTICK
 10
339.43199999999996
 20
485.1049
 30
0.0
 41
0.175
 42
0.175
 50
90.0
  0
LINE
  5
115
330
10C
100
AcDbEntity
  8
0
100
AcDbLine
 10
339.43199999999996
 20
458.23319999999995
 30
0.0
 11
339.43199999999996
 21
485.1049
 31
0.0
  0
MTEXT
  5
116
330
10C
100
AcDbEntity
  8
COTAS
100
AcDbMText
 10
339.20699999999994
 20
471.66904999999997
 30
0.0
 40
0.25
 71
5
  1
2687.17
  7
OpenSansCondensed-Light
 50
90.0
  0
POINT
  5
117
330
10C
100
AcDbEntity
  8
Defpoints
100
AcDbPoint
 10
339.43199999999996
 20
458.23319999999995
 30
0.0
  0
POINT
  5
118
330
10C
100
AcDbEntity
  8
Defpoints
100
AcDbPoint
 10
356.4036
 20
458.23319999999995
 30
0.0
  0
POINT
  5
119
330
10C
100
AcDbEntity
  8
Defpoints
100
AcDbPoint
 10
356.4036
 20
485.1049
 30
0.0
  0
ENDBLK
  5
10E
330
10C
100
AcDbEntity
  8
0
100
AcDbBlockEnd
  0
BLOCK
  5
176
330
175
100
AcDbEntity
  8
0
100
AcDbBlockBegin
  2
*D2
 70
1
 10
0.0
 20
0.0
 30
0.0
  3
*D2
  1

  0
LINE
  5
178
330
175
100
AcDbEntity
  8
0
100
AcDbLine
 10
33.9432
 20
226.16299999999998
 30
0.0
 11
33.9432
 21
216.01289999999997
 31
0.0
  0
LINE
  5
179
330
175
100
AcDbEntity
  8
0
100
AcDbLine
 10
82.0294
 20
226.16299999999998
 30
0.0
 11
82.0294
 21
216.01289999999997
 31
0.0
  0
INSERT
  5
17A
330
175
100
AcDbEntity
  8
COTAS
100
AcDbBlockReference
  2
_ARCHTICK
 10
33.9432
 20
216.38789999999997
 30
0.0
 41
0.175
 42
0.175
 50
180.0
  0
INSERT
  5
17C
330
175
100
AcDbEntity
  8
COTAS
100
AcDbBlockReference
  2
_ARCHTICK
 10
82.0294
 20
216.38789999999997
 30
0.0
 41
0.175
 42
0.175
  0
LINE
  5
17E
330
175
100
AcDbEntity
  8
0
100
AcDbLine
 10
33.9432
 20
216.38789999999997
 30
0.0
 11
82.0294
 21
216.38789999999997
 31
0.0
  0
MTEXT
  5
17F
330
175
100
AcDbEntity
  8
COTAS
100
AcDbMText
 10
57.9863
 20
216.61289999999997
 30
0.0
 40
0.25
 71
5
  1
4808.62
  7
OpenSansCondensed-Light
  0
POINT
  5
180
330
175
100
AcDbEntity
  8
Defpoints
100
AcDbPoint
 10
33.9432
 20
216.38789999999997
 30
0.0
  0
POINT
  5
181
330
175
100
AcDbEntity
  8
Defpoints
100
AcDbPoint
 10
33.9432
 20
226.28799999999998
 30
0.0
  0
POINT
  5
182
330
175
100
AcDbEntity
  8
Defpoints
100
AcDbPoint
 10
82.0294
 20
226.28799999999998
 30
0.0
  0
ENDBLK
  5
177
330
175
100
AcDbEntity
  8
0
100
AcDbBlockEnd
  0
BLOCK
  5
1B5
330
1B4
100
AcDbEntity
  8
0
100
AcDbBlockBegin
  2
*D3
 70
1
 10
0.0
 20
0.0
 30
0.0
  3
*D3
  1

  0
LINE
  5
1B7
330
1B4
100
AcDbEntity
  8
0
100
AcDbLine
 10
455.27959999999996
 20
231.94519999999997
 30
0.0
 11
433.8151
 21
231.94519999999997
 31
0.0
  0
LINE
  5
1B8
330
1B4
100
AcDbEntity
  8
0
100
AcDbLine
 10
455.27959999999996
 20
292.76009999999997
 30
0.0
 11
433.8151
 21
292.76009999999997
 31
0.0
  0
INSERT
  5
1B9
330
1B4
100
AcDbEntity
  8
COTAS
100
AcDbBlockReference
  2
_ARCHTICK
 10
434.1901
 20
231.94519999999997
 30
0.0
 41
0.175
 42
0.175
 50
270.0
  0
INSERT
  5
1BB
330
1B4
100
AcDbEntity
  8
COTAS
100
AcDbBlockReference
  2
_ARCHTICK
 10
434.1901
 20
292.76009999999997
 30
0.0
 41
0.175
 42
0.175
 50
90.0
  0
LINE
  5
1BD
330
1B4
100
AcDbEntity
  8
0
100
AcDbLine
 10
434.1901
 20
231.94519999999997
 30
0.0
 11
434.1901
 21
292.76009999999997
 31
0.0
  0
MTEXT
  5
1BE
330
1B4
100
AcDbEntity
  8
COTAS
100
AcDbMText
 10
433.96509999999995
 20
262.35265
 30
0.0
 40
0.25
 71
5
  1
6081.49
  7
OpenSansCondensed-Light
 50
90.0
  0
POINT
  5
1BF
330
1B4
100
AcDbEntity
  8
Defpoints
100
AcDbPoint
 10
434.1901
 20
231.94519999999997
 30
0.0
  0
POINT
  5
1C0
330
1B4
100
AcDbEntity
  8
Defpoints
100
AcDbPoint
 10
455.40459999999996
 20
231.94519999999997
 30
0.0
  0
POINT
  5
1C1
330
1B4
100
AcDbEntity
  8
Defpoints
100
AcDbPoint
 10
455.40459999999996
 20
292.76009999999997
 30
0.0
  0
ENDBLK
  5
1B6
330
1B4
100
AcDbEntity
  8
0
100
AcDbBlockEnd
  0
BLOCK
  5
1C4
330
1C3
100
AcDbEntity
  8
0
100
AcDbBlockBegin
  2
*D4
 70
1
 10
0.0
 20
0.0
 30
0.0
  3
*D4
  1

  0
LINE
  5
1C6
330
1C3
100
AcDbEntity
  8
0
100
AcDbLine
 10
455.40459999999996
 20
292.88509999999997
 30
0.0
 11
455.40459999999996
 21
300.2066
 31
0.0
  0
LINE
  5
1C7
330
1C3
100
AcDbEntity
  8
0
100
AcDbLine
 10
517.6338
 20
292.88509999999997
 30
0.0
 11
517.6338
 21
300.2066
 31
0.0
  0
INSERT
  5
1C8
330
1C3
100
AcDbEntity
  8
COTAS
100
AcDbBlockReference
  2
_ARCHTICK
 10
455.40459999999996
 20
299.8316
 30
0.0
 41
0.175
 42
0.175
 50
180.0
  0
INSERT
  5
1CA
330
1C3
100
AcDbEntity
  8
COTAS
100
AcDbBlockReference
  2
_ARCHTICK
 10
517.6338
 20
299.8316
 30
0.0
 41
0.175
 42
0.175
  0
LINE
  5
1CC
330
1C3
100
AcDbEntity
  8
0
100
AcDbLine
 10
455.40459999999996
 20
299.8316
 30
0.0
 11
517.6338
 21
299.8316
 31
0.0
  0
MTEXT
  5
1CD
330
1C3
100
AcDbEntity
  8
COTAS
100
AcDbMText
 10
486.51919999999996
 20
300.0566
 30
0.0
 40
0.25
 71
5
  1
6222.92
  7
OpenSansCondensed-Light
  0
POINT
  5
1CE
330
1C3
100
AcDbEntity
  8
Defpoints
100
AcDbPoint
 10
455.40459999999996
 20
299.8316
 30
0.0
  0
POINT
  5
1CF
330
1C3
100
AcDbEntity
  8
Defpoints
100
AcDbPoint
 10
455.40459999999996
 20
292.76009999999997
 30
0.0
  0
POINT
  5
1D0
330
1C3
100
AcDbEntity
  8
Defpoints
100
AcDbPoint
 10
517.6338
 20
292.76009999999997
 30
0.0
  0
ENDBLK
  5
1C5
330
1C3
100
AcDbEntity
  8
0
100
AcDbBlockEnd
  0
ENDSEC
  0
SECTION
  2
ENTITIES
  0
LWPOLYLINE
  5
96
330
17
100
AcDbEntity
  8
0-MARCO
100
AcDbPolyline
 90
4
 70
1
 10
0.0
 20
0.0
 10
840.0941999999999
 20
0.0
 10
840.0941999999999
 20
594.006
 10
0.0
 20
594.006
  0
LWPOLYLINE
  5
97
330
17
100
AcDbEntity
  8
0-MARCO
100
AcDbPolyline
 90
4
 70
1
 10
16.9716
 20
16.9716
 10
823.1225999999999
 20
16.9716
 10
823.1225999999999
 20
577.0344
 10
16.9716
 20
577.0344
  0
TEXT
  5
98
330
17
100
AcDbEntity
  8
TEXTO-TITULO
100
AcDbText
 10
420.04709999999994
 20
569.2557499999999
 30
0.0
 40
6.788639999999999
  1
PORTFOLIO TÉCNICO - PROYECTISTA AUTOCAD / INSTALACIONES ELÉCTRICAS - SUBESTACIÓN 132/13.2 kV
 72
1
 11
420.04709999999994
 21
569.2557499999999
 31
0.0
100
AcDbText
 73
2
  0
LWPOLYLINE
  5
99
330
17
100
AcDbEntity
  8
0-MARCO
100
AcDbPolyline
 90
4
 70
1
 10
16.9716
 20
332.3605
 10
299.8316
 20
332.3605
 10
299.8316
 20
560.0627999999999
 10
16.9716
 20
560.0627999999999
  0
LWPOLYLINE
  5
9A
330
17
100
AcDbEntity
  8
0-MARCO
100
AcDbPolyline
 90
4
 70
1
 10
16.9716
 20
543.0912
 10
299.8316
 20
543.0912
 10
299.8316
 20
560.0627999999999
 10
16.9716
 20
560.0627999999999
  0
MTEXT
  5
9B
330
17
100
AcDbEntity
  8
TEXTO-TITULO
100
AcDbMText
 10
21.214499999999997
 20
557.2342
 30
0.0
 40
5.94006
 41
274.3742
 71
1
  1
DIAGRAMA UNIFILAR - BAHÍA TRANSFORMADOR 132/13.2 kV  (S/E)
 44
1.05
  0
LINE
  5
9C
330
17
100
AcDbEntity
  8
AT-BARRAS
100
AcDbLine
 10
106.07249999999999
 20
534.6053999999999
 30
0.0
 11
106.07249999999999
 21
528.9481999999999
 31
0.0
  0
TEXT
  5
9D
330
17
100
AcDbEntity
  8
TEXTO
100
AcDbText
 10
111.7297
 20
533.1911
 30
0.0
 40
2.54574
  1
LÍNEA AT 132 kV (ENTRADA)
 11
111.7297
 21
533.1911
 31
0.0
100
AcDbText
  0
TEXT
  5
9E
330
17
100
AcDbEntity
  8
TEXTO-SPEC
100
AcDbText
 10
111.7297
 20
528.24105
 30
0.0
 40
1.909305
  1
Cap. transporte: 250 MVA
 11
111.7297
 21
528.24105
 31
0.0
100
AcDbText
  0
LWPOLYLINE
  5
9F
330
17
100
AcDbEntity
  8
AT-EQUIPOS
100
AcDbPolyline
 90
4
 70
1
 10
106.07249999999999
 20
518.6238099999999
 10
109.32538999999998
 20
521.8766999999999
 10
106.07249999999999
 20
525.12959
 10
102.81961
 20
521.8766999999999
  0
TEXT
  5
A0
330
17
100
AcDbEntity
  8
TEXTO
100
AcDbText
 10
111.16397999999998
 20
521.8766999999999
 30
0.0
 40
2.54574
  1
89-1
 11
111.16397999999998
 21
521.8766999999999
 31
0.0
100
AcDbText
  0
TEXT
  5
A1
330
17
100
AcDbEntity
  8
TEXTO-SPEC
100
AcDbText
 10
111.16397999999998
 20
517.6338
 30
0.0
 40
1.909305
  1
In 1250A / Un 145kV
 11
111.16397999999998
 21
517.6338
 31
0.0
100
AcDbText
  0
LINE
  5
A2
330
17
100
AcDbEntity
  8
AT-BARRAS
100
AcDbLine
 10
106.07249999999999
 20
521.8766999999999
 30
0.0
 11
106.07249999999999
 21
503.4908
 31
0.0
  0
CIRCLE
  5
A3
330
17
100
AcDbEntity
  8
AT-EQUIPOS
100
AcDbCircle
 10
127.28699999999999
 20
511.97659999999996
 30
0.0
 40
2.4043099999999997
  0
CIRCLE
  5
A4
330
17
100
AcDbEntity
  8
AT-EQUIPOS
100
AcDbCircle
 10
127.28699999999999
 20
514.38091
 30
0.0
 40
2.4043099999999997
  0
TEXT
  5
A5
330
17
100
AcDbEntity
  8
TEXTO
100
AcDbText
 10
131.81276
 20
511.97659999999996
 30
0.0
 40
2.54574
  1
TT-1
 11
131.81276
 21
511.97659999999996
 31
0.0
100
AcDbText
  0
TEXT
  5
A6
330
17
100
AcDbEntity
  8
TEXTO-SPEC
100
AcDbText
 10
131.5299
 20
507.02655
 30
0.0
 40
1.909305
  1
Un: 132/0.110 kV (f-f)
 11
131.5299
 21
507.02655
 31
0.0
100
AcDbText
  0
LINE
  5
A7
330
17
100
AcDbEntity
  8
AT-BARRAS
100
AcDbLine
 10
106.07249999999999
 20
511.97659999999996
 30
0.0
 11
124.45839999999998
 21
511.97659999999996
 31
0.0
  0
LWPOLYLINE
  5
A8
330
17
100
AcDbEntity
  8
AT-EQUIPOS
100
AcDbPolyline
 90
4
 70
1
 10
103.10247
 20
500.5207699999999
 10
109.04252999999999
 20
500.5207699999999
 10
109.04252999999999
 20
506.46083
 10
103.10247
 20
506.46083
  0
TEXT
  5
A9
330
17
100
AcDbEntity
  8
TEXTO
100
AcDbText
 10
111.16397999999998
 20
503.4908
 30
0.0
 40
2.54574
  1
52-1
 11
111.16397999999998
 21
503.4908
 31
0.0
100
AcDbText
  0
TEXT
  5
AA
330
17
100
AcDbEntity
  8
TEXTO-SPEC
100
AcDbText
 10
111.16397999999998
 20
499.24789999999996
 30
0.0
 40
1.909305
  1
Icc 31.5kA / In 1250A
 11
111.16397999999998
 21
499.24789999999996
 31
0.0
100
AcDbText
  0
LINE
  5
AB
330
17
100
AcDbEntity
  8
AT-BARRAS
100
AcDbLine
 10
106.07249999999999
 20
503.4908
 30
0.0
 11
106.07249999999999
 21
485.1049
 31
0.0
  0
CIRCLE
  5
AC
330
17
100
AcDbEntity
  8
AT-EQUIPOS
100
AcDbCircle
 10
106.07249999999999
 20
485.1049
 30
0.0
 40
2.4043099999999997
  0
TEXT
  5
AD
330
17
100
AcDbEntity
  8
TEXTO
100
AcDbText
 10
110.59826
 20
485.1049
 30
0.0
 40
2.54574
  1
TC-1
 11
110.59826
 21
485.1049
 31
0.0
100
AcDbText
  0
TEXT
  5
AE
330
17
100
AcDbEntity
  8
TEXTO-SPEC
100
AcDbText
 10
110.59826
 20
480.86199999999997
 30
0.0
 40
1.909305
  1
600/5A - Cl. 0.2 - 15VA
 11
110.59826
 21
480.86199999999997
 31
0.0
100
AcDbText
  0
LINE
  5
AF
330
17
100
AcDbEntity
  8
AT-BARRAS
100
AcDbLine
 10
106.07249999999999
 20
485.1049
 30
0.0
 11
106.07249999999999
 21
466.71899999999994
 31
0.0
  0
LWPOLYLINE
  5
B0
330
17
100
AcDbEntity
  8
AT-EQUIPOS
100
AcDbPolyline
 90
4
 70
1
 10
106.07249999999999
 20
463.46610999999996
 10
109.32538999999998
 20
466.71899999999994
 10
106.07249999999999
 20
469.97189
 10
102.81961
 20
466.71899999999994
  0
TEXT
  5
B1
330
17
100
AcDbEntity
  8
TEXTO
100
AcDbText
 10
111.16397999999998
 20
466.71899999999994
 30
0.0
 40
2.54574
  1
89-2
 11
111.16397999999998
 21
466.71899999999994
 31
0.0
100
AcDbText
  0
LWPOLYLINE
  5
B2
330
17
100
AcDbEntity
  8
AT-EQUIPOS
100
AcDbPolyline
 90
3
 70
1
 10
124.31697
 20
455.26316999999995
 10
130.25703
 20
455.26316999999995
 10
127.28699999999999
 20
461.20323
  0
TEXT
  5
B3
330
17
100
AcDbEntity
  8
TEXTO
100
AcDbText
 10
132.37847999999997
 20
458.23319999999995
 30
0.0
 40
2.54574
  1
DPS-1
 11
132.37847999999997
 21
458.23319999999995
 31
0.0
100
AcDbText
  0
TEXT
  5
B4
330
17
100
AcDbEntity
  8
TEXTO-SPEC
100
AcDbText
 10
131.5299
 20
453.28315
 30
0.0
 40
1.909305
  1
132kV - 10kA Cl.3
 11
131.5299
 21
453.28315
 31
0.0
100
AcDbText
  0
LINE
  5
B5
330
17
100
AcDbEntity
  8
AT-BARRAS
100
AcDbLine
 10
106.07249999999999
 20
458.23319999999995
 30
0.0
 11
106.07249999999999
 21
466.71899999999994
 31
0.0
  0
LINE
  5
B6
330
17
100
AcDbEntity
  8
AT-BARRAS
100
AcDbLine
 10
106.07249999999999
 20
458.23319999999995
 30
0.0
 11
124.45839999999998
 21
458.23319999999995
 31
0.0
  0
LINE
  5
B7
330
17
100
AcDbEntity
  8
AT-BARRAS
100
AcDbLine
 10
106.07249999999999
 20
466.71899999999994
 30
0.0
 11
106.07249999999999
 21
448.33309999999994
 31
0.0
  0
CIRCLE
  5
B8
330
17
100
AcDbEntity
  8
AT-EQUIPOS
100
AcDbCircle
 10
106.07249999999999
 20
431.55950199999995
 30
0.0
 40
7.35436
  0
CIRCLE
  5
B9
330
17
100
AcDbEntity
  8
AT-EQUIPOS
100
AcDbCircle
 10
106.07249999999999
 20
439.649298
 30
0.0
 40
7.35436
  0
TEXT
  5
BA
330
17
100
AcDbEntity
  8
TEXTO
100
AcDbText
 10
117.66976
 20
435.60439999999994
 30
0.0
 40
2.54574
  1
TRAFO 132/13.2 kV - 25 MVA
 11
117.66976
 21
435.60439999999994
 31
0.0
100
AcDbText
  0
TEXT
  5
BB
330
17
100
AcDbEntity
  8
TEXTO-SPEC
100
AcDbText
 10
117.66976
 20
430.65434999999997
 30
0.0
 40
1.909305
  1
Conexión: Dyn11
 11
117.66976
 21
430.65434999999997
 31
0.0
100
AcDbText
  0
TEXT
  5
BC
330
17
100
AcDbEntity
  8
TEXTO-SPEC
100
AcDbText
 10
117.66976
 20
426.41144999999995
 30
0.0
 40
1.909305
  1
Z% = 10.5  /  Refrig. ONAN
 11
117.66976
 21
426.41144999999995
 31
0.0
100
AcDbText
  0
TEXT
  5
BD
330
17
100
AcDbEntity
  8
TEXTO-SPEC
100
AcDbText
 10
117.66976
 20
422.16855
 30
0.0
 40
1.909305
  1
Foso de contención (ver Panel B)
 11
117.66976
 21
422.16855
 31
0.0
100
AcDbText
  0
LINE
  5
BE
330
17
100
AcDbEntity
  8
AT-BARRAS
100
AcDbLine
 10
106.07249999999999
 20
421.46139999999997
 30
0.0
 11
106.07249999999999
 21
418.6328
 31
0.0
  0
LINE
  5
BF
330
17
100
AcDbEntity
  8
TIERRA-MALLA
100
AcDbLine
 10
82.0294
 20
415.8042
 30
0.0
 11
82.0294
 21
413.5413199999999
 31
0.0
  0
LINE
  5
C0
330
17
100
AcDbEntity
  8
TIERRA-MALLA
100
AcDbLine
 10
79.76651999999999
 20
413.5413199999999
 30
0.0
 11
84.29227999999999
 21
413.5413199999999
 31
0.0
  0
LINE
  5
C1
330
17
100
AcDbEntity
  8
TIERRA-MALLA
100
AcDbLine
 10
80.54438499999999
 20
411.9855899999999
 30
0.0
 11
83.51441499999999
 21
411.9855899999999
 31
0.0
  0
LINE
  5
C2
330
17
100
AcDbEntity
  8
TIERRA-MALLA
100
AcDbLine
 10
81.32225
 20
410.42985999999996
 30
0.0
 11
82.73655
 21
410.42985999999996
 31
0.0
  0
TEXT
  5
C3
330
17
100
AcDbEntity
  8
TEXTO
100
AcDbText
 10
80.6151
 20
405.19694999999996
 30
0.0
 40
2.54574
  1
PAT
 11
80.6151
 21
405.19694999999996
 31
0.0
100
AcDbText
  0
TEXT
  5
C4
330
17
100
AcDbEntity
  8
TEXTO-SPEC
100
AcDbText
 10
80.6151
 20
400.2469
 30
0.0
 40
1.909305
  1
(ver Panel C)
 11
80.6151
 21
400.2469
 31
0.0
100
AcDbText
  0
LINE
  5
C5
330
17
100
AcDbEntity
  8
TIERRA-MALLA
100
AcDbLine
 10
106.07249999999999
 20
418.6328
 30
0.0
 11
82.0294
 21
418.6328
 31
0.0
  0
LWPOLYLINE
  5
C6
330
17
100
AcDbEntity
  8
AT-EQUIPOS
100
AcDbPolyline
 90
4
 70
1
 10
103.10247
 20
402.93406999999996
 10
109.04252999999999
 20
402.93406999999996
 10
109.04252999999999
 20
408.87413
 10
103.10247
 20
408.87413
  0
TEXT
  5
C7
330
17
100
AcDbEntity
  8
TEXTO
100
AcDbText
 10
111.16397999999998
 20
405.90409999999997
 30
0.0
 40
2.54574
  1
52-2
 11
111.16397999999998
 21
405.90409999999997
 31
0.0
100
AcDbText
  0
TEXT
  5
C8
330
17
100
AcDbEntity
  8
TEXTO-SPEC
100
AcDbText
 10
111.16397999999998
 20
401.66119999999995
 30
0.0
 40
1.909305
  1
Icc 25kA / In 1250A
 11
111.16397999999998
 21
401.66119999999995
 31
0.0
100
AcDbText
  0
LINE
  5
C9
330
17
100
AcDbEntity
  8
AT-BARRAS
100
AcDbLine
 10
106.07249999999999
 20
405.90409999999997
 30
0.0
 11
106.07249999999999
 21
388.93249999999995
 31
0.0
  0
LINE
  5
CA
330
17
100
AcDbEntity
  8
AT-BARRAS
370
50
100
AcDbLine
 10
35.357499999999995
 20
388.93249999999995
 30
0.0
 11
261.64549999999997
 21
388.93249999999995
 31
0.0
  0
TEXT
  5
CB
330
17
100
AcDbEntity
  8
TEXTO
100
AcDbText
 10
38.186099999999996
 20
392.04395999999997
 30
0.0
 40
2.54574
  1
BARRA COLECTORA 13.2 kV
 11
38.186099999999996
 21
392.04395999999997
 31
0.0
100
AcDbText
  0
TEXT
  5
CC
330
17
100
AcDbEntity
  8
TEXTO-SPEC
100
AcDbText
 10
38.186099999999996
 20
384.40674
 30
0.0
 40
1.909305
  1
In barra: 2000 A
 11
38.186099999999996
 21
384.40674
 31
0.0
100
AcDbText
  0
LINE
  5
CD
330
17
100
AcDbEntity
  8
AT-BARRAS
100
AcDbLine
 10
82.0294
 20
388.93249999999995
 30
0.0
 11
82.0294
 21
383.27529999999996
 31
0.0
  0
LWPOLYLINE
  5
CE
330
17
100
AcDbEntity
  8
AT-EQUIPOS
100
AcDbPolyline
 90
4
 70
1
 10
79.05936999999999
 20
374.64806999999996
 10
84.99942999999999
 20
374.64806999999996
 10
84.99942999999999
 20
380.58813
 10
79.05936999999999
 20
380.58813
  0
TEXT
  5
CF
330
17
100
AcDbEntity
  8
TEXTO
100
AcDbText
 10
87.12088
 20
377.61809999999997
 30
0.0
 40
2.54574
  1
52-3
 11
87.12088
 21
377.61809999999997
 31
0.0
100
AcDbText
  0
TEXT
  5
D0
330
17
100
AcDbEntity
  8
TEXTO-SPEC
100
AcDbText
 10
87.12088
 20
373.37519999999995
 30
0.0
 40
1.909305
  1
630 A
 11
87.12088
 21
373.37519999999995
 31
0.0
100
AcDbText
  0
LINE
  5
D1
330
17
100
AcDbEntity
  8
AT-BARRAS
100
AcDbLine
 10
82.0294
 20
374.7895
 30
0.0
 11
82.0294
 21
369.1323
 31
0.0
  0
TEXT
  5
D2
330
17
100
AcDbEntity
  8
TEXTO
100
AcDbText
 10
73.5436
 20
364.88939999999997
 30
0.0
 40
2.54574
  1
SALIDA 1
 11
73.5436
 21
364.88939999999997
 31
0.0
100
AcDbText
  0
LINE
  5
D3
330
17
100
AcDbEntity
  8
AT-BARRAS
100
AcDbLine
 10
159.8159
 20
388.93249999999995
 30
0.0
 11
159.8159
 21
383.27529999999996
 31
0.0
  0
LWPOLYLINE
  5
D4
330
17
100
AcDbEntity
  8
AT-EQUIPOS
100
AcDbPolyline
 90
4
 70
1
 10
156.84587
 20
374.64806999999996
 10
162.78592999999998
 20
374.64806999999996
 10
162.78592999999998
 20
380.58813
 10
156.84587
 20
380.58813
  0
TEXT
  5
D5
330
17
100
AcDbEntity
  8
TEXTO
100
AcDbText
 10
164.90738
 20
377.61809999999997
 30
0.0
 40
2.54574
  1
52-4
 11
164.90738
 21
377.61809999999997
 31
0.0
100
AcDbText
  0
TEXT
  5
D6
330
17
100
AcDbEntity
  8
TEXTO-SPEC
100
AcDbText
 10
164.90738
 20
373.37519999999995
 30
0.0
 40
1.909305
  1
630 A
 11
164.90738
 21
373.37519999999995
 31
0.0
100
AcDbText
  0
LINE
  5
D7
330
17
100
AcDbEntity
  8
AT-BARRAS
100
AcDbLine
 10
159.8159
 20
374.7895
 30
0.0
 11
159.8159
 21
369.1323
 31
0.0
  0
TEXT
  5
D8
330
17
100
AcDbEntity
  8
TEXTO
100
AcDbText
 10
151.3301
 20
364.88939999999997
 30
0.0
 40
2.54574
  1
SALIDA 2
 11
151.3301
 21
364.88939999999997
 31
0.0
100
AcDbText
  0
LINE
  5
D9
330
17
100
AcDbEntity
  8
AT-BARRAS
100
AcDbLine
 10
223.4594
 20
388.93249999999995
 30
0.0
 11
223.4594
 21
383.27529999999996
 31
0.0
  0
LWPOLYLINE
  5
DA
330
17
100
AcDbEntity
  8
AT-EQUIPOS
100
AcDbPolyline
 90
4
 70
1
 10
220.48936999999998
 20
374.64806999999996
 10
226.42942999999997
 20
374.64806999999996
 10
226.42942999999997
 20
380.58813
 10
220.48936999999998
 20
380.58813
  0
TEXT
  5
DB
330
17
100
AcDbEntity
  8
TEXTO
100
AcDbText
 10
228.55087999999998
 20
377.61809999999997
 30
0.0
 40
2.54574
  1
52-5
 11
228.55087999999998
 21
377.61809999999997
 31
0.0
100
AcDbText
  0
TEXT
  5
DC
330
17
100
AcDbEntity
  8
TEXTO-SPEC
100
AcDbText
 10
228.55087999999998
 20
373.37519999999995
 30
0.0
 40
1.909305
  1
630 A
 11
228.55087999999998
 21
373.37519999999995
 31
0.0
100
AcDbText
  0
LINE
  5
DD
330
17
100
AcDbEntity
  8
AT-BARRAS
100
AcDbLine
 10
223.4594
 20
374.7895
 30
0.0
 11
223.4594
 21
369.1323
 31
0.0
  0
TEXT
  5
DE
330
17
100
AcDbEntity
  8
TEXTO
100
AcDbText
 10
214.97359999999998
 20
364.88939999999997
 30
0.0
 40
2.54574
  1
SALIDA 3
 11
214.97359999999998
 21
364.88939999999997
 31
0.0
100
AcDbText
  0
LWPOLYLINE
  5
DF
330
17
100
AcDbEntity
  8
0-MARCO
100
AcDbPolyline
 90
4
 70
1
 10
311.14599999999996
 20
332.3605
 10
622.2919999999999
 20
332.3605
 10
622.2919999999999
 20
560.0627999999999
 10
311.14599999999996
 20
560.0627999999999
  0
LWPOLYLINE
  5
E0
330
17
100
AcDbEntity
  8
0-MARCO
100
AcDbPolyline
 90
4
 70
1
 10
311.14599999999996
 20
543.0912
 10
622.2919999999999
 20
543.0912
 10
622.2919999999999
 20
560.0627999999999
 10
311.14599999999996
 20
560.0627999999999
  0
MTEXT
  5
E1
330
17
100
AcDbEntity
  8
TEXTO-TITULO
100
AcDbMText
 10
315.3889
 20
557.2342
 30
0.0
 40
5.94006
 41
302.6602
 71
1
  1
LAYOUT DE EQUIPOS - PATIO DE ALTA TENSIÓN 132 kV  (Esc. indicativa)
 44
1.05
  0
LWPOLYLINE
  5
E2
330
17
100
AcDbEntity
  8
CERCO
100
AcDbPolyline
 90
4
 70
1
 10
325.289
 20
345.08919999999995
 10
596.8345999999999
 20
345.08919999999995
 10
596.8345999999999
 20
537.434
 10
325.289
 20
537.434
  0
TEXT
  5
E3
330
17
100
AcDbEntity
  8
TEXTO-SPEC
100
AcDbText
 10
328.1176
 20
538.8483
 30
0.0
 40
1.909305
  1
CERCO PERIMETRAL h=2.40m
 11
328.1176
 21
538.8483
 31
0.0
100
AcDbText
  0
LINE
  5
E4
330
17
100
AcDbEntity
  8
ESTRUCTURAS
100
AcDbLine
 10
370.54659999999996
 20
520.4624
 30
0.0
 11
370.54659999999996
 21
533.1911
 31
0.0
  0
LINE
  5
E5
330
17
100
AcDbEntity
  8
ESTRUCTURAS
100
AcDbLine
 10
404.48979999999995
 20
520.4624
 30
0.0
 11
404.48979999999995
 21
533.1911
 31
0.0
  0
LINE
  5
E6
330
17
100
AcDbEntity
  8
ESTRUCTURAS
100
AcDbLine
 10
370.54659999999996
 20
533.1911
 30
0.0
 11
404.48979999999995
 21
533.1911
 31
0.0
  0
TEXT
  5
E7
330
17
100
AcDbEntity
  8
TEXTO
100
AcDbText
 10
367.71799999999996
 20
523.2909999999999
 30
0.0
 40
2.54574
  1
PÓRTICO DE LÍNEA
 11
367.71799999999996
 21
523.2909999999999
 31
0.0
100
AcDbText
  0
TEXT
  5
E8
330
17
100
AcDbEntity
  8
TEXTO-SPEC
100
AcDbText
 10
367.71799999999996
 20
519.0481
 30
0.0
 40
1.909305
  1
h=9.0m - perfil reticulado
 11
367.71799999999996
 21
519.0481
 31
0.0
100
AcDbText
  0
LWPOLYLINE
  5
E9
330
17
100
AcDbEntity
  8
AT-EQUIPOS
100
AcDbPolyline
 90
4
 70
1
 10
381.861
 20
500.6622
 10
396.00399999999996
 20
500.6622
 10
396.00399999999996
 20
507.73369999999994
 10
381.861
 20
507.73369999999994
  0
TEXT
  5
EA
330
17
100
AcDbEntity
  8
TEXTO
100
AcDbText
 10
398.83259999999996
 20
502.78364999999997
 30
0.0
 40
2.54574
  1
SECC. 89-1
 11
398.83259999999996
 21
502.78364999999997
 31
0.0
100
AcDbText
  0
LWPOLYLINE
  5
EB
330
17
100
AcDbEntity
  8
CIVIL
100
AcDbPolyline
 90
4
 70
1
 10
356.4036
 20
449.74739999999997
 10
424.28999999999996
 20
449.74739999999997
 10
424.28999999999996
 20
492.17639999999994
 10
356.4036
 20
492.17639999999994
  0
TEXT
  5
EC
330
17
100
AcDbEntity
  8
TEXTO-SPEC
100
AcDbText
 10
356.4036
 20
494.29785
 30
0.0
 40
1.909305
  1
FOSO DE CONTENCIÓN DE ACEITE
 11
356.4036
 21
494.29785
 31
0.0
100
AcDbText
  0
LWPOLYLINE
  5
ED
330
17
100
AcDbEntity
  8
AT-EQUIPOS
100
AcDbPolyline
 90
4
 70
1
 10
364.88939999999997
 20
458.23319999999995
 10
415.8042
 20
458.23319999999995
 10
415.8042
 20
485.1049
 10
364.88939999999997
 20
485.1049
  0
TEXT
  5
EE
330
17
100
AcDbEntity
  8
TEXTO
100
AcDbText
 10
369.1323
 20
472.3762
 30
0.0
 40
2.54574
  1
TRAFO 25 MVA
 11
369.1323
 21
472.3762
 31
0.0
100
AcDbText
  0
TEXT
  5
EF
330
17
100
AcDbEntity
  8
TEXTO-SPEC
100
AcDbText
 10
369.1323
 20
462.4761
 30
0.0
 40
1.909305
  1
Huella 6.0 x 4.5 m
 11
369.1323
 21
462.4761
 31
0.0
100
AcDbText
  0
CIRCLE
  5
F0
330
17
100
AcDbEntity
  8
AT-EQUIPOS
100
AcDbCircle
 10
376.20379999999994
 20
485.1049
 30
0.0
 40
1.27287
  0
CIRCLE
  5
F1
330
17
100
AcDbEntity
  8
AT-EQUIPOS
100
AcDbCircle
 10
390.3468
 20
485.1049
 30
0.0
 40
1.27287
  0
CIRCLE
  5
F2
330
17
100
AcDbEntity
  8
AT-EQUIPOS
100
AcDbCircle
 10
404.48979999999995
 20
485.1049
 30
0.0
 40
1.27287
  0
LWPOLYLINE
  5
F3
330
17
100
AcDbEntity
  8
AT-EQUIPOS
100
AcDbPolyline
 90
4
 70
1
 10
379.0324
 20
424.28999999999996
 10
404.48979999999995
 20
424.28999999999996
 10
404.48979999999995
 20
438.433
 10
379.0324
 20
438.433
  0
TEXT
  5
F4
330
17
100
AcDbEntity
  8
TEXTO
100
AcDbText
 10
408.73269999999997
 20
429.24004999999994
 30
0.0
 40
2.54574
  1
INT. 52-1
 11
408.73269999999997
 21
429.24004999999994
 31
0.0
100
AcDbText
  0
LINE
  5
F5
330
17
100
AcDbEntity
  8
AT-BARRAS
370
50
100
AcDbLine
 10
342.26059999999995
 20
404.48979999999995
 30
0.0
 11
585.5201999999999
 21
404.48979999999995
 31
0.0
  0
LINE
  5
F6
330
17
100
AcDbEntity
  8
ESTRUCTURAS
100
AcDbLine
 10
359.2322
 20
404.48979999999995
 30
0.0
 11
359.2322
 21
412.9756
 31
0.0
  0
LINE
  5
F7
330
17
100
AcDbEntity
  8
ESTRUCTURAS
100
AcDbLine
 10
441.2616
 20
404.48979999999995
 30
0.0
 11
441.2616
 21
412.9756
 31
0.0
  0
LINE
  5
F8
330
17
100
AcDbEntity
  8
ESTRUCTURAS
100
AcDbLine
 10
523.2909999999999
 20
404.48979999999995
 30
0.0
 11
523.2909999999999
 21
412.9756
 31
0.0
  0
LINE
  5
F9
330
17
100
AcDbEntity
  8
ESTRUCTURAS
100
AcDbLine
 10
571.3771999999999
 20
404.48979999999995
 30
0.0
 11
571.3771999999999
 21
412.9756
 31
0.0
  0
TEXT
  5
FA
330
17
100
AcDbEntity
  8
TEXTO
100
AcDbText
 10
345.08919999999995
 20
407.3184
 30
0.0
 40
3.5357499999999997
  1
ESTRUCTURA BARRA COLECTORA
 11
345.08919999999995
 21
407.3184
 31
0.0
100
AcDbText
  0
TEXT
  5
FB
330
17
100
AcDbEntity
  8
TEXTO-SPEC
100
AcDbText
 10
345.08919999999995
 20
399.53974999999997
 30
0.0
 40
1.909305
  1
h=6.0m
 11
345.08919999999995
 21
399.53974999999997
 31
0.0
100
AcDbText
  0
LWPOLYLINE
  5
FC
330
17
100
AcDbEntity
  8
AT-EQUIPOS
100
AcDbPolyline
 90
4
 70
1
 10
352.86785
 20
364.88939999999997
 10
365.59655
 20
364.88939999999997
 10
365.59655
 20
379.0324
 10
352.86785
 20
379.0324
  0
TEXT
  5
FD
330
17
100
AcDbEntity
  8
TEXTO
100
AcDbText
 10
349.33209999999997
 20
356.4036
 30
0.0
 40
2.54574
  1
SALIDA 1
 11
349.33209999999997
 21
356.4036
 31
0.0
100
AcDbText
  0
LINE
  5
FE
330
17
100
AcDbEntity
  8
AT-BARRAS
100
AcDbLine
 10
359.2322
 20
379.0324
 30
0.0
 11
359.2322
 21
404.48979999999995
 31
0.0
  0
LWPOLYLINE
  5
FF
330
17
100
AcDbEntity
  8
AT-EQUIPOS
100
AcDbPolyline
 90
4
 70
1
 10
434.89725
 20
364.88939999999997
 10
447.62595
 20
364.88939999999997
 10
447.62595
 20
379.0324
 10
434.89725
 20
379.0324
  0
TEXT
  5
100
330
17
100
AcDbEntity
  8
TEXTO
100
AcDbText
 10
431.3615
 20
356.4036
 30
0.0
 40
2.54574
  1
SALIDA 2
 11
431.3615
 21
356.4036
 31
0.0
100
AcDbText
  0
LINE
  5
101
330
17
100
AcDbEntity
  8
AT-BARRAS
100
AcDbLine
 10
441.2616
 20
379.0324
 30
0.0
 11
441.2616
 21
404.48979999999995
 31
0.0
  0
LWPOLYLINE
  5
102
330
17
100
AcDbEntity
  8
AT-EQUIPOS
100
AcDbPolyline
 90
4
 70
1
 10
516.92665
 20
364.88939999999997
 10
529.65535
 20
364.88939999999997
 10
529.65535
 20
379.0324
 10
516.92665
 20
379.0324
  0
TEXT
  5
103
330
17
100
AcDbEntity
  8
TEXTO
100
AcDbText
 10
513.3909
 20
356.4036
 30
0.0
 40
2.54574
  1
SALIDA 3
 11
513.3909
 21
356.4036
 31
0.0
100
AcDbText
  0
LINE
  5
104
330
17
100
AcDbEntity
  8
AT-BARRAS
100
AcDbLine
 10
523.2909999999999
 20
379.0324
 30
0.0
 11
523.2909999999999
 21
404.48979999999995
 31
0.0
  0
LWPOLYLINE
  5
105
330
17
100
AcDbEntity
  8
ESTRUCTURAS
100
AcDbPolyline
 90
4
 70
1
 10
526.1196
 20
449.74739999999997
 10
585.5201999999999
 20
449.74739999999997
 10
585.5201999999999
 20
506.3194
 10
526.1196
 20
506.3194
  0
MTEXT
  5
106
330
17
100
AcDbEntity
  8
TEXTO
100
AcDbMText
 10
528.9481999999999
 20
485.1049
 30
0.0
 40
2.54574
 41
53.743399999999994
 71
1
  1
SALA DE\PCONTROL
 44
1.35
  0
TEXT
  5
107
330
17
100
AcDbEntity
  8
TEXTO-SPEC
100
AcDbText
 10
528.9481999999999
 20
455.40459999999996
 30
0.0
 40
1.909305
  1
8.0 x 5.0 m
 11
528.9481999999999
 21
455.40459999999996
 31
0.0
100
AcDbText
  0
LINE
  5
108
330
17
100
AcDbEntity
  8
EJES
100
AcDbLine
 10
325.289
 20
356.4036
 30
0.0
 11
356.4036
 21
373.37519999999995
 31
0.0
  0
TEXT
  5
109
330
17
100
AcDbEntity
  8
TEXTO
100
AcDbText
 10
328.1176
 20
359.2322
 30
0.0
 40
2.54574
  1
ACCESO
 11
328.1176
 21
359.2322
 31
0.0
100
AcDbText
  0
TEXT
  5
10A
330
17
100
AcDbEntity
  8
TEXTO-SPEC
100
AcDbText
 10
328.1176
 20
354.28214999999994
 30
0.0
 40
1.909305
  1
Camino interno e=0.15m H.A.
 11
328.1176
 21
354.28214999999994
 31
0.0
100
AcDbText
  0
DIMENSION
  5
10B
330
17
100
AcDbEntity
  8
COTAS
100
AcDbDimension
280
0
  2
*D1
  3
EZDXF
 10
339.43199999999996
 20
458.23319999999995
 30
0.0
 11
339.20699999999994
 21
471.66904999999997
 31
0.0
 70
32
 71
5
  1
<>
100
AcDbAlignedDimension
 13
356.4036
 23
458.23319999999995
 33
0.0
 14
356.4036
 24
485.1049
 34
0.0
 50
90.0
100
AcDbRotatedDimension
  0
MTEXT
  5
11A
330
17
100
AcDbEntity
  8
TEXTO
100
AcDbMText
 10
328.1176
 20
480.86199999999997
 30
0.0
 40
1.9800199999999997
 41
31.114599999999996
 71
1
  1
DIST.\PSEGURIDAD\P3.50 m
 44
1.35
  0
LWPOLYLINE
  5
11B
330
17
100
AcDbEntity
  8
TIERRA-MALLA
  6
DASHED
100
AcDbPolyline
 90
5
 70
0
 10
396.00399999999996
 20
449.74739999999997
 10
396.00399999999996
 20
418.6328
 10
466.71899999999994
 20
418.6328
 10
466.71899999999994
 20
463.89039999999994
 10
526.1196
 20
463.89039999999994
  0
LWPOLYLINE
  5
11C
330
17
100
AcDbEntity
  8
ESTRUCTURAS
100
AcDbPolyline
 90
4
 70
1
 10
393.7411199999999
 20
416.3699199999999
 10
398.26688
 20
416.3699199999999
 10
398.26688
 20
420.89568
 10
393.7411199999999
 20
420.89568
  0
LWPOLYLINE
  5
11D
330
17
100
AcDbEntity
  8
ESTRUCTURAS
100
AcDbPolyline
 90
4
 70
1
 10
464.45611999999994
 20
438.99871999999993
 10
468.98188
 20
438.99871999999993
 10
468.98188
 20
443.52448
 10
464.45611999999994
 20
443.52448
  0
TEXT
  5
11E
330
17
100
AcDbEntity
  8
TEXTO-SPEC
100
AcDbText
 10
397.4183
 20
415.09704999999997
 30
0.0
 40
1.909305
  1
REGISTRO
 11
397.4183
 21
415.09704999999997
 31
0.0
100
AcDbText
  0
MTEXT
  5
11F
330
17
100
AcDbEntity
  8
TEXTO
100
AcDbMText
 10
470.96189999999996
 20
466.71899999999994
 30
0.0
 40
2.12145
 41
59.4006
 71
1
  1
TRINCHERA TIPO\P(ver Panel D)
 44
1.35
  0
LINE
  5
120
330
17
100
AcDbEntity
  8
TEXTO
100
AcDbLine
 10
577.0344
 20
526.1196
 30
0.0
 11
577.0344
 21
536.0197
 31
0.0
  0
LINE
  5
121
330
17
100
AcDbEntity
  8
TEXTO
100
AcDbLine
 10
577.0344
 20
536.0197
 30
0.0
 11
575.05438
 21
532.62538
 31
0.0
  0
LINE
  5
122
330
17
100
AcDbEntity
  8
TEXTO
100
AcDbLine
 10
577.0344
 20
536.0197
 30
0.0
 11
579.01442
 21
532.62538
 31
0.0
  0
TEXT
  5
123
330
17
100
AcDbEntity
  8
TEXTO
100
AcDbText
 10
575.76153
 20
537.85829
 30
0.0
 40
2.54574
  1
N
 11
575.76153
 21
537.85829
 31
0.0
100
AcDbText
  0
LWPOLYLINE
  5
124
330
17
100
AcDbEntity
  8
0-MARCO
100
AcDbPolyline
 90
4
 70
1
 10
633.6063999999999
 20
332.3605
 10
823.1225999999999
 20
332.3605
 10
823.1225999999999
 20
560.0627999999999
 10
633.6063999999999
 20
560.0627999999999
  0
LWPOLYLINE
  5
125
330
17
100
AcDbEntity
  8
0-MARCO
100
AcDbPolyline
 90
4
 70
1
 10
633.6063999999999
 20
545.9198
 10
823.1225999999999
 20
545.9198
 10
823.1225999999999
 20
560.0627999999999
 10
633.6063999999999
 20
560.0627999999999
  0
MTEXT
  5
126
330
17
100
AcDbEntity
  8
TEXTO-TITULO
100
AcDbMText
 10
637.8493
 20
557.2342
 30
0.0
 40
5.94006
 41
181.0304
 71
1
  1
LEYENDA / SIMBOLOGÍA
 44
1.05
  0
LWPOLYLINE
  5
127
330
17
100
AcDbEntity
  8
AT-EQUIPOS
100
AcDbPolyline
 90
4
 70
1
 10
647.7493999999999
 20
534.18111
 10
651.00229
 20
537.434
 10
647.7493999999999
 20
540.68689
 10
644.49651
 20
537.434
  0
TEXT
  5
128
330
17
100
AcDbEntity
  8
TEXTO
100
AcDbText
 10
652.84088
 20
537.434
 30
0.0
 40
2.54574
  1

 11
652.84088
 21
537.434
 31
0.0
100
AcDbText
  0
TEXT
  5
129
330
17
100
AcDbEntity
  8
TEXTO
100
AcDbText
 10
660.4780999999999
 20
535.5954099999999
 30
0.0
 40
2.54574
  1
Seccionador (89)
 11
660.4780999999999
 21
535.5954099999999
 31
0.0
100
AcDbText
  0
LWPOLYLINE
  5
12A
330
17
100
AcDbEntity
  8
AT-EQUIPOS
100
AcDbPolyline
 90
4
 70
1
 10
644.77937
 20
521.7352699999999
 10
650.71943
 20
521.7352699999999
 10
650.71943
 20
527.67533
 10
644.77937
 20
527.67533
  0
TEXT
  5
12B
330
17
100
AcDbEntity
  8
TEXTO
100
AcDbText
 10
652.84088
 20
524.7053
 30
0.0
 40
2.54574
  1

 11
652.84088
 21
524.7053
 31
0.0
100
AcDbText
  0
TEXT
  5
12C
330
17
100
AcDbEntity
  8
TEXTO
100
AcDbText
 10
660.4780999999999
 20
522.8667099999999
 30
0.0
 40
2.54574
  1
Interruptor (52)
 11
660.4780999999999
 21
522.8667099999999
 31
0.0
100
AcDbText
  0
CIRCLE
  5
12D
330
17
100
AcDbEntity
  8
AT-EQUIPOS
100
AcDbCircle
 10
647.7493999999999
 20
511.97659999999996
 30
0.0
 40
2.4043099999999997
  0
TEXT
  5
12E
330
17
100
AcDbEntity
  8
TEXTO
100
AcDbText
 10
652.2751599999999
 20
511.97659999999996
 30
0.0
 40
2.54574
  1

 11
652.2751599999999
 21
511.97659999999996
 31
0.0
100
AcDbText
  0
TEXT
  5
12F
330
17
100
AcDbEntity
  8
TEXTO
100
AcDbText
 10
660.4780999999999
 20
510.13800999999995
 30
0.0
 40
2.54574
  1
Transf. de corriente (TC)
 11
660.4780999999999
 21
510.13800999999995
 31
0.0
100
AcDbText
  0
CIRCLE
  5
130
330
17
100
AcDbEntity
  8
AT-EQUIPOS
100
AcDbCircle
 10
647.7493999999999
 20
499.24789999999996
 30
0.0
 40
2.4043099999999997
  0
CIRCLE
  5
131
330
17
100
AcDbEntity
  8
AT-EQUIPOS
100
AcDbCircle
 10
647.7493999999999
 20
501.65220999999997
 30
0.0
 40
2.4043099999999997
  0
TEXT
  5
132
330
17
100
AcDbEntity
  8
TEXTO
100
AcDbText
 10
652.2751599999999
 20
499.24789999999996
 30
0.0
 40
2.54574
  1

 11
652.2751599999999
 21
499.24789999999996
 31
0.0
100
AcDbText
  0
TEXT
  5
133
330
17
100
AcDbEntity
  8
TEXTO
100
AcDbText
 10
660.4780999999999
 20
497.40930999999995
 30
0.0
 40
2.54574
  1
Transf. de tensión (TT)
 11
660.4780999999999
 21
497.40930999999995
 31
0.0
100
AcDbText
  0
CIRCLE
  5
134
330
17
100
AcDbEntity
  8
AT-EQUIPOS
100
AcDbCircle
 10
647.7493999999999
 20
480.3528519999999
 30
0.0
 40
7.35436
  0
CIRCLE
  5
135
330
17
100
AcDbEntity
  8
AT-EQUIPOS
100
AcDbCircle
 10
647.7493999999999
 20
488.44264799999996
 30
0.0
 40
7.35436
  0
TEXT
  5
136
330
17
100
AcDbEntity
  8
TEXTO
100
AcDbText
 10
659.3466599999999
 20
484.39775
 30
0.0
 40
2.54574
  1

 11
659.3466599999999
 21
484.39775
 31
0.0
100
AcDbText
  0
TEXT
  5
137
330
17
100
AcDbEntity
  8
TEXTO
100
AcDbText
 10
660.4780999999999
 20
482.55915999999996
 30
0.0
 40
2.54574
  1
Transformador de potencia
 11
660.4780999999999
 21
482.55915999999996
 31
0.0
100
AcDbText
  0
LWPOLYLINE
  5
138
330
17
100
AcDbEntity
  8
AT-EQUIPOS
100
AcDbPolyline
 90
3
 70
1
 10
644.77937
 20
460.2132199999999
 10
650.71943
 20
460.2132199999999
 10
647.7493999999999
 20
466.15328
  0
TEXT
  5
139
330
17
100
AcDbEntity
  8
TEXTO
100
AcDbText
 10
652.84088
 20
463.18325
 30
0.0
 40
2.54574
  1

 11
652.84088
 21
463.18325
 31
0.0
100
AcDbText
  0
TEXT
  5
13A
330
17
100
AcDbEntity
  8
TEXTO
100
AcDbText
 10
660.4780999999999
 20
461.34466
 30
0.0
 40
2.54574
  1
Pararrayos / DPS (96)
 11
660.4780999999999
 21
461.34466
 31
0.0
100
AcDbText
  0
LINE
  5
13B
330
17
100
AcDbEntity
  8
TIERRA-MALLA
100
AcDbLine
 10
647.7493999999999
 20
450.45455
 30
0.0
 11
647.7493999999999
 21
448.19166999999993
 31
0.0
  0
LINE
  5
13C
330
17
100
AcDbEntity
  8
TIERRA-MALLA
100
AcDbLine
 10
645.4865199999999
 20
448.19166999999993
 30
0.0
 11
650.01228
 21
448.19166999999993
 31
0.0
  0
LINE
  5
13D
330
17
100
AcDbEntity
  8
TIERRA-MALLA
100
AcDbLine
 10
646.264385
 20
446.6359399999999
 30
0.0
 11
649.234415
 21
446.6359399999999
 31
0.0
  0
LINE
  5
13E
330
17
100
AcDbEntity
  8
TIERRA-MALLA
100
AcDbLine
 10
647.04225
 20
445.08020999999997
 30
0.0
 11
648.45655
 21
445.08020999999997
 31
0.0
  0
TEXT
  5
13F
330
17
100
AcDbEntity
  8
TEXTO
100
AcDbText
 10
660.4780999999999
 20
448.61596
 30
0.0
 40
2.54574
  1
Puesta a tierra (PAT)
 11
660.4780999999999
 21
448.61596
 31
0.0
100
AcDbText
  0
CIRCLE
  5
140
330
17
100
AcDbEntity
  8
TIERRA-MALLA
 62
3
100
AcDbCircle
 10
647.7493999999999
 20
437.72585
 30
0.0
 40
1.2021549999999999
  0
TEXT
  5
141
330
17
100
AcDbEntity
  8
TEXTO
100
AcDbText
 10
660.4780999999999
 20
435.88725999999997
 30
0.0
 40
2.54574
  1
Jabalina de PAT
 11
660.4780999999999
 21
435.88725999999997
 31
0.0
100
AcDbText
  0
LINE
  5
142
330
17
100
AcDbEntity
  8
AT-BARRAS
370
50
100
AcDbLine
 10
644.9208
 20
424.99715
 30
0.0
 11
654.8208999999999
 21
424.99715
 31
0.0
  0
TEXT
  5
143
330
17
100
AcDbEntity
  8
TEXTO
100
AcDbText
 10
660.4780999999999
 20
423.15855999999997
 30
0.0
 40
2.54574
  1
Barra / conductor AT
 11
660.4780999999999
 21
423.15855999999997
 31
0.0
100
AcDbText
  0
LINE
  5
144
330
17
100
AcDbEntity
  8
TIERRA-MALLA
  6
DASHED
100
AcDbLine
 10
644.9208
 20
413.68274999999994
 30
0.0
 11
654.8208999999999
 21
413.68274999999994
 31
0.0
  0
TEXT
  5
145
330
17
100
AcDbEntity
  8
TEXTO
100
AcDbText
 10
660.4780999999999
 20
411.84415999999993
 30
0.0
 40
2.54574
  1
Canalización subterránea
 11
660.4780999999999
 21
411.84415999999993
 31
0.0
100
AcDbText
  0
LWPOLYLINE
  5
146
330
17
100
AcDbEntity
  8
ESTRUCTURAS
100
AcDbPolyline
 90
4
 70
1
 10
644.9208
 20
400.1054699999999
 10
650.01228
 20
400.1054699999999
 10
650.01228
 20
404.63123
 10
644.9208
 20
404.63123
  0
TEXT
  5
147
330
17
100
AcDbEntity
  8
TEXTO
100
AcDbText
 10
660.4780999999999
 20
400.52975999999995
 30
0.0
 40
2.54574
  1
Cámara de registro
 11
660.4780999999999
 21
400.52975999999995
 31
0.0
100
AcDbText
  0
LINE
  5
148
330
17
100
AcDbEntity
  8
CIVIL
100
AcDbLine
 10
644.9208
 20
391.05395
 30
0.0
 11
654.8208999999999
 21
391.05395
 31
0.0
  0
TEXT
  5
149
330
17
100
AcDbEntity
  8
TEXTO
100
AcDbText
 10
660.4780999999999
 20
389.21536
 30
0.0
 40
2.54574
  1
Foso de contención (civil)
 11
660.4780999999999
 21
389.21536
 31
0.0
100
AcDbText
  0
CIRCLE
  5
14A
330
17
100
AcDbEntity
  8
ESTRUCTURAS
100
AcDbCircle
 10
647.7493999999999
 20
379.73954999999995
 30
0.0
 40
1.9800199999999997
  0
TEXT
  5
14B
330
17
100
AcDbEntity
  8
TEXTO
100
AcDbText
 10
660.4780999999999
 20
377.90095999999994
 30
0.0
 40
2.54574
  1
Ducto de reserva
 11
660.4780999999999
 21
377.90095999999994
 31
0.0
100
AcDbText
  0
LINE
  5
14C
330
17
100
AcDbEntity
  8
0-MARCO
100
AcDbLine
 10
642.0921999999999
 20
370.54659999999996
 30
0.0
 11
814.6368
 21
370.54659999999996
 31
0.0
  0
TEXT
  5
14D
330
17
100
AcDbEntity
  8
TEXTO-TITULO
100
AcDbText
 10
642.0921999999999
 20
362.0608
 30
0.0
 40
3.9600400000000002
  1
ABREVIATURAS
 11
642.0921999999999
 21
362.0608
 31
0.0
100
AcDbText
  0
MTEXT
  5
14E
330
17
100
AcDbEntity
  8
TEXTO-SPEC
100
AcDbMText
 10
642.0921999999999
 20
355.27215999999993
 30
0.0
 40
1.7678749999999999
 41
172.54459999999997
 71
1
  1
AT: Alta Tensión | BT: Baja Tensión | MT: Media Tensión | In: Corriente nominal\PIcc: Corriente de cortocircuito | PAT: Puesta a Tierra | DPS: Descargador de sobretensión
 44
1.35
  0
LWPOLYLINE
  5
14F
330
17
100
AcDbEntity
  8
0-MARCO
100
AcDbPolyline
 90
4
 70
1
 10
16.9716
 20
169.71599999999998
 10
410.147
 20
169.71599999999998
 10
410.147
 20
321.04609999999997
 10
16.9716
 20
321.04609999999997
  0
LWPOLYLINE
  5
150
330
17
100
AcDbEntity
  8
0-MARCO
100
AcDbPolyline
 90
4
 70
1
 10
16.9716
 20
304.0745
 10
410.147
 20
304.0745
 10
410.147
 20
321.04609999999997
 10
16.9716
 20
321.04609999999997
  0
MTEXT
  5
151
330
17
100
AcDbEntity
  8
TEXTO-TITULO
100
AcDbMText
 10
21.214499999999997
 20
318.2175
 30
0.0
 40
5.94006
 41
384.6896
 71
1
  1
MALLA DE PUESTA A TIERRA - DETALLE EN PLANTA  (Esc. indicativa)
 44
1.05
  0
LINE
  5
152
330
17
100
AcDbEntity
  8
TIERRA-MALLA
100
AcDbLine
 10
33.9432
 20
226.28799999999998
 30
0.0
 11
33.9432
 21
294.1744
 31
0.0
  0
LINE
  5
153
330
17
100
AcDbEntity
  8
TIERRA-MALLA
100
AcDbLine
 10
82.0294
 20
226.28799999999998
 30
0.0
 11
82.0294
 21
294.1744
 31
0.0
  0
LINE
  5
154
330
17
100
AcDbEntity
  8
TIERRA-MALLA
100
AcDbLine
 10
130.1156
 20
226.28799999999998
 30
0.0
 11
130.1156
 21
294.1744
 31
0.0
  0
LINE
  5
155
330
17
100
AcDbEntity
  8
TIERRA-MALLA
100
AcDbLine
 10
178.2018
 20
226.28799999999998
 30
0.0
 11
178.2018
 21
294.1744
 31
0.0
  0
LINE
  5
156
330
17
100
AcDbEntity
  8
TIERRA-MALLA
100
AcDbLine
 10
226.28799999999998
 20
226.28799999999998
 30
0.0
 11
226.28799999999998
 21
294.1744
 31
0.0
  0
LINE
  5
157
330
17
100
AcDbEntity
  8
TIERRA-MALLA
100
AcDbLine
 10
274.3742
 20
226.28799999999998
 30
0.0
 11
274.3742
 21
294.1744
 31
0.0
  0
LINE
  5
158
330
17
100
AcDbEntity
  8
TIERRA-MALLA
100
AcDbLine
 10
33.9432
 20
226.28799999999998
 30
0.0
 11
274.3742
 21
226.28799999999998
 31
0.0
  0
LINE
  5
159
330
17
100
AcDbEntity
  8
TIERRA-MALLA
100
AcDbLine
 10
33.9432
 20
248.91679999999997
 30
0.0
 11
274.3742
 21
248.91679999999997
 31
0.0
  0
LINE
  5
15A
330
17
100
AcDbEntity
  8
TIERRA-MALLA
100
AcDbLine
 10
33.9432
 20
271.5456
 30
0.0
 11
274.3742
 21
271.5456
 31
0.0
  0
LINE
  5
15B
330
17
100
AcDbEntity
  8
TIERRA-MALLA
100
AcDbLine
 10
33.9432
 20
294.1744
 30
0.0
 11
274.3742
 21
294.1744
 31
0.0
  0
CIRCLE
  5
15C
330
17
100
AcDbEntity
  8
TIERRA-MALLA
 62
3
100
AcDbCircle
 10
33.9432
 20
226.28799999999998
 30
0.0
 40
1.2021549999999999
  0
CIRCLE
  5
15D
330
17
100
AcDbEntity
  8
TIERRA-MALLA
 62
3
100
AcDbCircle
 10
33.9432
 20
248.91679999999997
 30
0.0
 40
1.2021549999999999
  0
CIRCLE
  5
15E
330
17
100
AcDbEntity
  8
TIERRA-MALLA
 62
3
100
AcDbCircle
 10
33.9432
 20
271.5456
 30
0.0
 40
1.2021549999999999
  0
CIRCLE
  5
15F
330
17
100
AcDbEntity
  8
TIERRA-MALLA
 62
3
100
AcDbCircle
 10
33.9432
 20
294.1744
 30
0.0
 40
1.2021549999999999
  0
CIRCLE
  5
160
330
17
100
AcDbEntity
  8
TIERRA-MALLA
 62
3
100
AcDbCircle
 10
82.0294
 20
226.28799999999998
 30
0.0
 40
1.2021549999999999
  0
CIRCLE
  5
161
330
17
100
AcDbEntity
  8
TIERRA-MALLA
 62
3
100
AcDbCircle
 10
82.0294
 20
248.91679999999997
 30
0.0
 40
1.2021549999999999
  0
CIRCLE
  5
162
330
17
100
AcDbEntity
  8
TIERRA-MALLA
 62
3
100
AcDbCircle
 10
82.0294
 20
271.5456
 30
0.0
 40
1.2021549999999999
  0
CIRCLE
  5
163
330
17
100
AcDbEntity
  8
TIERRA-MALLA
 62
3
100
AcDbCircle
 10
82.0294
 20
294.1744
 30
0.0
 40
1.2021549999999999
  0
CIRCLE
  5
164
330
17
100
AcDbEntity
  8
TIERRA-MALLA
 62
3
100
AcDbCircle
 10
130.1156
 20
226.28799999999998
 30
0.0
 40
1.2021549999999999
  0
CIRCLE
  5
165
330
17
100
AcDbEntity
  8
TIERRA-MALLA
 62
3
100
AcDbCircle
 10
130.1156
 20
248.91679999999997
 30
0.0
 40
1.2021549999999999
  0
CIRCLE
  5
166
330
17
100
AcDbEntity
  8
TIERRA-MALLA
 62
3
100
AcDbCircle
 10
130.1156
 20
271.5456
 30
0.0
 40
1.2021549999999999
  0
CIRCLE
  5
167
330
17
100
AcDbEntity
  8
TIERRA-MALLA
 62
3
100
AcDbCircle
 10
130.1156
 20
294.1744
 30
0.0
 40
1.2021549999999999
  0
CIRCLE
  5
168
330
17
100
AcDbEntity
  8
TIERRA-MALLA
 62
3
100
AcDbCircle
 10
178.2018
 20
226.28799999999998
 30
0.0
 40
1.2021549999999999
  0
CIRCLE
  5
169
330
17
100
AcDbEntity
  8
TIERRA-MALLA
 62
3
100
AcDbCircle
 10
178.2018
 20
248.91679999999997
 30
0.0
 40
1.2021549999999999
  0
CIRCLE
  5
16A
330
17
100
AcDbEntity
  8
TIERRA-MALLA
 62
3
100
AcDbCircle
 10
178.2018
 20
271.5456
 30
0.0
 40
1.2021549999999999
  0
CIRCLE
  5
16B
330
17
100
AcDbEntity
  8
TIERRA-MALLA
 62
3
100
AcDbCircle
 10
178.2018
 20
294.1744
 30
0.0
 40
1.2021549999999999
  0
CIRCLE
  5
16C
330
17
100
AcDbEntity
  8
TIERRA-MALLA
 62
3
100
AcDbCircle
 10
226.28799999999998
 20
226.28799999999998
 30
0.0
 40
1.2021549999999999
  0
CIRCLE
  5
16D
330
17
100
AcDbEntity
  8
TIERRA-MALLA
 62
3
100
AcDbCircle
 10
226.28799999999998
 20
248.91679999999997
 30
0.0
 40
1.2021549999999999
  0
CIRCLE
  5
16E
330
17
100
AcDbEntity
  8
TIERRA-MALLA
 62
3
100
AcDbCircle
 10
226.28799999999998
 20
271.5456
 30
0.0
 40
1.2021549999999999
  0
CIRCLE
  5
16F
330
17
100
AcDbEntity
  8
TIERRA-MALLA
 62
3
100
AcDbCircle
 10
226.28799999999998
 20
294.1744
 30
0.0
 40
1.2021549999999999
  0
CIRCLE
  5
170
330
17
100
AcDbEntity
  8
TIERRA-MALLA
 62
3
100
AcDbCircle
 10
274.3742
 20
226.28799999999998
 30
0.0
 40
1.2021549999999999
  0
CIRCLE
  5
171
330
17
100
AcDbEntity
  8
TIERRA-MALLA
 62
3
100
AcDbCircle
 10
274.3742
 20
248.91679999999997
 30
0.0
 40
1.2021549999999999
  0
CIRCLE
  5
172
330
17
100
AcDbEntity
  8
TIERRA-MALLA
 62
3
100
AcDbCircle
 10
274.3742
 20
271.5456
 30
0.0
 40
1.2021549999999999
  0
CIRCLE
  5
173
330
17
100
AcDbEntity
  8
TIERRA-MALLA
 62
3
100
AcDbCircle
 10
274.3742
 20
294.1744
 30
0.0
 40
1.2021549999999999
  0
DIMENSION
  5
174
330
17
100
AcDbEntity
  8
COTAS
100
AcDbDimension
280
0
  2
*D2
  3
EZDXF
 10
33.9432
 20
216.38789999999997
 30
0.0
 11
57.9863
 21
216.61289999999997
 31
0.0
 70
32
 71
5
  1
<>
100
AcDbAlignedDimension
 13
33.9432
 23
226.28799999999998
 33
0.0
 14
82.0294
 24
226.28799999999998
 34
0.0
 50
0.0
100
AcDbRotatedDimension
  0
TEXT
  5
183
330
17
100
AcDbEntity
  8
TEXTO
100
AcDbText
 10
39.60039999999999
 20
205.78064999999998
 30
0.0
 40
2.54574
  1
5.00 m TÍP.
 11
39.60039999999999
 21
205.78064999999998
 31
0.0
100
AcDbText
  0
LINE
  5
184
330
17
100
AcDbEntity
  8
TIERRA-MALLA
100
AcDbLine
 10
226.28799999999998
 20
248.91679999999997
 30
0.0
 11
246.08819999999997
 21
255.98829999999998
 31
0.0
  0
MTEXT
  5
185
330
17
100
AcDbEntity
  8
TEXTO
100
AcDbMText
 10
247.50249999999997
 20
260.2312
 30
0.0
 40
1.9800199999999997
 41
62.22919999999999
 71
1
  1
BAJADA A TRAFO
 44
1.35
  0
LWPOLYLINE
  5
186
330
17
100
AcDbEntity
  8
0-MARCO
100
AcDbPolyline
 90
4
 70
1
 10
319.6318
 20
234.7738
 10
398.83259999999996
 20
234.7738
 10
398.83259999999996
 20
297.003
 10
319.6318
 20
297.003
  0
TEXT
  5
187
330
17
100
AcDbEntity
  8
TEXTO-SPEC
100
AcDbText
 10
322.4604
 20
292.76009999999997
 30
0.0
 40
1.909305
  1
DETALLE: UNIÓN JABALINA-CONDUCTOR
 11
322.4604
 21
292.76009999999997
 31
0.0
100
AcDbText
  0
LINE
  5
188
330
17
100
AcDbEntity
  8
TIERRA-MALLA
370
70
100
AcDbLine
 10
333.77479999999997
 20
246.08819999999997
 30
0.0
 11
333.77479999999997
 21
277.20279999999997
 31
0.0
  0
LINE
  5
189
330
17
100
AcDbEntity
  8
TIERRA-MALLA
370
50
100
AcDbLine
 10
333.77479999999997
 20
263.0598
 30
0.0
 11
387.5182
 21
263.0598
 31
0.0
  0
LINE
  5
18A
330
17
100
AcDbEntity
  8
COTAS
100
AcDbLine
 10
330.9462
 20
260.2312
 30
0.0
 11
336.60339999999997
 21
265.8884
 31
0.0
  0
LINE
  5
18B
330
17
100
AcDbEntity
  8
COTAS
100
AcDbLine
 10
330.9462
 20
265.8884
 30
0.0
 11
336.60339999999997
 21
260.2312
 31
0.0
  0
TEXT
  5
18C
330
17
100
AcDbEntity
  8
TEXTO-SPEC
100
AcDbText
 10
322.4604
 20
240.43099999999998
 30
0.0
 40
1.909305
  1
Jabalina Cu
 11
322.4604
 21
240.43099999999998
 31
0.0
100
AcDbText
  0
TEXT
  5
18D
330
17
100
AcDbEntity
  8
TEXTO-SPEC
100
AcDbText
 10
356.4036
 20
268.717
 30
0.0
 40
1.909305
  1
Soldadura
 11
356.4036
 21
268.717
 31
0.0
100
AcDbText
  0
TEXT
  5
18E
330
17
100
AcDbEntity
  8
TEXTO-SPEC
100
AcDbText
 10
356.4036
 20
265.18125
 30
0.0
 40
1.909305
  1
exotérmica
 11
356.4036
 21
265.18125
 31
0.0
100
AcDbText
  0
TEXT
  5
18F
330
17
100
AcDbEntity
  8
TEXTO-SPEC
100
AcDbText
 10
356.4036
 20
250.3311
 30
0.0
 40
1.909305
  1
Conductor 4/0
 11
356.4036
 21
250.3311
 31
0.0
100
AcDbText
  0
MTEXT
  5
190
330
17
100
AcDbEntity
  8
TEXTO
100
AcDbMText
 10
22.6288
 20
200.83059999999998
 30
0.0
 40
2.26288
 41
381.861
 71
1
  1
CONDUCTOR: Cobre desnudo 4/0 AWG (107.2 mm2)  |  PROFUNDIDAD: 0.50 m\PJABALINAS: Copperweld D 5/8" x 1.50 m  |  UNIONES: Soldadura exotérmica (Cadweld)\PRESIST. DE PAT OBJETIVO: <= 1 ohm (IRAM 2281)  |  Nro. JABALINAS: 24 (perimetrales + interiores)
 44
1.35
  0
LWPOLYLINE
  5
191
330
17
100
AcDbEntity
  8
0-MARCO
100
AcDbPolyline
 90
4
 70
1
 10
421.46139999999997
 20
169.71599999999998
 10
823.1225999999999
 20
169.71599999999998
 10
823.1225999999999
 20
321.04609999999997
 10
421.46139999999997
 20
321.04609999999997
  0
LWPOLYLINE
  5
192
330
17
100
AcDbEntity
  8
0-MARCO
100
AcDbPolyline
 90
4
 70
1
 10
421.46139999999997
 20
304.0745
 10
823.1225999999999
 20
304.0745
 10
823.1225999999999
 20
321.04609999999997
 10
421.46139999999997
 20
321.04609999999997
  0
MTEXT
  5
193
330
17
100
AcDbEntity
  8
TEXTO-TITULO
100
AcDbMText
 10
425.7043
 20
318.2175
 30
0.0
 40
5.94006
 41
393.17539999999997
 71
1
  1
CANALIZACIONES Y DUCTOS - CORTE TIPO DE TRINCHERA  (Esc. indicativa)
 44
1.05
  0
LWPOLYLINE
  5
194
330
17
100
AcDbEntity
  8
ESTRUCTURAS
100
AcDbPolyline
 90
4
 70
1
 10
455.40459999999996
 20
231.94519999999997
 10
517.6338
 20
231.94519999999997
 10
517.6338
 20
292.76009999999997
 10
455.40459999999996
 20
292.76009999999997
  0
LWPOLYLINE
  5
195
330
17
100
AcDbEntity
  8
ESTRUCTURAS
100
AcDbPolyline
 90
4
 70
1
 10
455.40459999999996
 20
285.68859999999995
 10
517.6338
 20
285.68859999999995
 10
517.6338
 20
292.76009999999997
 10
455.40459999999996
 20
292.76009999999997
  0
LINE
  5
196
330
17
100
AcDbEntity
  8
EJES
100
AcDbLine
 10
455.40459999999996
 20
289.22434999999996
 30
0.0
 11
517.6338
 21
289.22434999999996
 31
0.0
  0
LINE
  5
197
330
17
100
AcDbEntity
  8
EJES
100
AcDbLine
 10
442.67589999999996
 20
292.76009999999997
 30
0.0
 11
530.3625
 21
292.76009999999997
 31
0.0
  0
LINE
  5
198
330
17
100
AcDbEntity
  8
EJES
100
AcDbLine
 10
442.67589999999996
 20
292.76009999999997
 30
0.0
 11
440.41301999999996
 21
295.02297999999996
 31
0.0
  0
LINE
  5
199
330
17
100
AcDbEntity
  8
EJES
100
AcDbLine
 10
448.33309999999994
 20
292.76009999999997
 30
0.0
 11
446.07021999999995
 21
295.02297999999996
 31
0.0
  0
LINE
  5
19A
330
17
100
AcDbEntity
  8
EJES
100
AcDbLine
 10
453.9903
 20
292.76009999999997
 30
0.0
 11
451.72741999999994
 21
295.02297999999996
 31
0.0
  0
LINE
  5
19B
330
17
100
AcDbEntity
  8
EJES
100
AcDbLine
 10
459.6475
 20
292.76009999999997
 30
0.0
 11
457.3846199999999
 21
295.02297999999996
 31
0.0
  0
LINE
  5
19C
330
17
100
AcDbEntity
  8
EJES
100
AcDbLine
 10
465.30469999999997
 20
292.76009999999997
 30
0.0
 11
463.0418199999999
 21
295.02297999999996
 31
0.0
  0
LINE
  5
19D
330
17
100
AcDbEntity
  8
EJES
100
AcDbLine
 10
470.96189999999996
 20
292.76009999999997
 30
0.0
 11
468.6990199999999
 21
295.02297999999996
 31
0.0
  0
LINE
  5
19E
330
17
100
AcDbEntity
  8
EJES
100
AcDbLine
 10
476.61909999999995
 20
292.76009999999997
 30
0.0
 11
474.35621999999995
 21
295.02297999999996
 31
0.0
  0
LINE
  5
19F
330
17
100
AcDbEntity
  8
EJES
100
AcDbLine
 10
482.27629999999994
 20
292.76009999999997
 30
0.0
 11
480.01341999999994
 21
295.02297999999996
 31
0.0
  0
LINE
  5
1A0
330
17
100
AcDbEntity
  8
EJES
100
AcDbLine
 10
487.9335
 20
292.76009999999997
 30
0.0
 11
485.67061999999993
 21
295.02297999999996
 31
0.0
  0
LINE
  5
1A1
330
17
100
AcDbEntity
  8
EJES
100
AcDbLine
 10
493.59069999999997
 20
292.76009999999997
 30
0.0
 11
491.3278199999999
 21
295.02297999999996
 31
0.0
  0
LINE
  5
1A2
330
17
100
AcDbEntity
  8
EJES
100
AcDbLine
 10
499.24789999999996
 20
292.76009999999997
 30
0.0
 11
496.9850199999999
 21
295.02297999999996
 31
0.0
  0
LINE
  5
1A3
330
17
100
AcDbEntity
  8
EJES
100
AcDbLine
 10
504.90509999999995
 20
292.76009999999997
 30
0.0
 11
502.64221999999995
 21
295.02297999999996
 31
0.0
  0
LINE
  5
1A4
330
17
100
AcDbEntity
  8
EJES
100
AcDbLine
 10
510.56229999999994
 20
292.76009999999997
 30
0.0
 11
508.29941999999994
 21
295.02297999999996
 31
0.0
  0
LINE
  5
1A5
330
17
100
AcDbEntity
  8
EJES
100
AcDbLine
 10
516.2194999999999
 20
292.76009999999997
 30
0.0
 11
513.9566199999999
 21
295.02297999999996
 31
0.0
  0
LINE
  5
1A6
330
17
100
AcDbEntity
  8
EJES
100
AcDbLine
 10
521.8766999999999
 20
292.76009999999997
 30
0.0
 11
519.6138199999999
 21
295.02297999999996
 31
0.0
  0
LINE
  5
1A7
330
17
100
AcDbEntity
  8
EJES
100
AcDbLine
 10
527.5338999999999
 20
292.76009999999997
 30
0.0
 11
525.2710199999999
 21
295.02297999999996
 31
0.0
  0
LINE
  5
1A8
330
17
100
AcDbEntity
  8
COTAS
  6
DASHED
100
AcDbLine
 10
455.40459999999996
 20
281.4457
 30
0.0
 11
517.6338
 21
281.4457
 31
0.0
  0
CIRCLE
  5
1A9
330
17
100
AcDbEntity
  8
AT-EQUIPOS
100
AcDbCircle
 10
466.71899999999994
 20
274.3742
 30
0.0
 40
2.26288
  0
CIRCLE
  5
1AA
330
17
100
AcDbEntity
  8
AT-EQUIPOS
100
AcDbCircle
 10
482.27629999999994
 20
274.3742
 30
0.0
 40
2.26288
  0
CIRCLE
  5
1AB
330
17
100
AcDbEntity
  8
AT-EQUIPOS
100
AcDbCircle
 10
497.83359999999993
 20
274.3742
 30
0.0
 40
2.26288
  0
CIRCLE
  5
1AC
330
17
100
AcDbEntity
  8
ESTRUCTURAS
100
AcDbCircle
 10
509.14799999999997
 20
274.3742
 30
0.0
 40
2.26288
  0
LWPOLYLINE
  5
1AD
330
17
100
AcDbEntity
  8
ESTRUCTURAS
100
AcDbPolyline
 90
4
 70
1
 10
455.40459999999996
 20
261.64549999999997
 10
517.6338
 20
261.64549999999997
 10
517.6338
 20
265.8884
 10
455.40459999999996
 20
265.8884
  0
CIRCLE
  5
1AE
330
17
100
AcDbEntity
  8
AT-BARRAS
100
AcDbCircle
 10
466.71899999999994
 20
251.03824999999998
 30
0.0
 40
3.67718
  0
CIRCLE
  5
1AF
330
17
100
AcDbEntity
  8
AT-BARRAS
100
AcDbCircle
 10
482.27629999999994
 20
251.03824999999998
 30
0.0
 40
3.67718
  0
CIRCLE
  5
1B0
330
17
100
AcDbEntity
  8
AT-BARRAS
100
AcDbCircle
 10
497.83359999999993
 20
251.03824999999998
 30
0.0
 40
3.67718
  0
CIRCLE
  5
1B1
330
17
100
AcDbEntity
  8
ESTRUCTURAS
100
AcDbCircle
 10
509.14799999999997
 20
251.03824999999998
 30
0.0
 40
2.54574
  0
LWPOLYLINE
  5
1B2
330
17
100
AcDbEntity
  8
EJES
100
AcDbPolyline
 90
4
 70
1
 10
455.40459999999996
 20
231.94519999999997
 10
517.6338
 20
231.94519999999997
 10
517.6338
 20
240.43099999999998
 10
455.40459999999996
 20
240.43099999999998
  0
DIMENSION
  5
1B3
330
17
100
AcDbEntity
  8
COTAS
100
AcDbDimension
280
0
  2
*D3
  3
EZDXF
 10
434.1901
 20
231.94519999999997
 30
0.0
 11
433.96509999999995
 21
262.35265
 31
0.0
 70
32
 71
5
  1
<>
100
AcDbAlignedDimension
 13
455.40459999999996
 23
231.94519999999997
 33
0.0
 14
455.40459999999996
 24
292.76009999999997
 34
0.0
 50
90.0
100
AcDbRotatedDimension
  0
DIMENSION
  5
1C2
330
17
100
AcDbEntity
  8
COTAS
100
AcDbDimension
280
0
  2
*D4
  3
EZDXF
 10
455.40459999999996
 20
299.8316
 30
0.0
 11
486.51919999999996
 21
300.0566
 31
0.0
 70
32
 71
5
  1
<>
100
AcDbAlignedDimension
 13
455.40459999999996
 23
292.76009999999997
 33
0.0
 14
517.6338
 24
292.76009999999997
 34
0.0
 50
0.0
100
AcDbRotatedDimension
  0
LINE
  5
1D1
330
17
100
AcDbEntity
  8
TEXTO
100
AcDbLine
 10
517.6338
 20
289.22434999999996
 30
0.0
 11
526.1196
 21
289.22434999999996
 31
0.0
  0
TEXT
  5
1D2
330
17
100
AcDbEntity
  8
TEXTO
100
AcDbText
 10
527.5338999999999
 20
288.09290999999996
 30
0.0
 40
2.050735
  1
TAPA H.A. REMOVIBLE e=0.05 m
 11
527.5338999999999
 21
288.09290999999996
 31
0.0
100
AcDbText
  0
LINE
  5
1D3
330
17
100
AcDbEntity
  8
TEXTO
100
AcDbLine
 10
517.6338
 20
281.4457
 30
0.0
 11
526.1196
 21
281.4457
 31
0.0
  0
TEXT
  5
1D4
330
17
100
AcDbEntity
  8
TEXTO
100
AcDbText
 10
527.5338999999999
 20
280.31426
 30
0.0
 40
2.050735
  1
CINTA DE ADVERTENCIA
 11
527.5338999999999
 21
280.31426
 31
0.0
100
AcDbText
  0
LINE
  5
1D5
330
17
100
AcDbEntity
  8
TEXTO
100
AcDbLine
 10
517.6338
 20
274.3742
 30
0.0
 11
526.1196
 21
274.3742
 31
0.0
  0
TEXT
  5
1D6
330
17
100
AcDbEntity
  8
TEXTO
100
AcDbText
 10
527.5338999999999
 20
273.24276
 30
0.0
 40
2.050735
  1
CABLES CONTROL/SEÑAL (BT) + DUCTO RESERVA D110
 11
527.5338999999999
 21
273.24276
 31
0.0
100
AcDbText
  0
LINE
  5
1D7
330
17
100
AcDbEntity
  8
TEXTO
100
AcDbLine
 10
517.6338
 20
263.76694999999995
 30
0.0
 11
526.1196
 21
263.76694999999995
 31
0.0
  0
TEXT
  5
1D8
330
17
100
AcDbEntity
  8
TEXTO
100
AcDbText
 10
527.5338999999999
 20
262.63550999999995
 30
0.0
 40
2.050735
  1
SEPARADOR PVC
 11
527.5338999999999
 21
262.63550999999995
 31
0.0
100
AcDbText
  0
LINE
  5
1D9
330
17
100
AcDbEntity
  8
TEXTO
100
AcDbLine
 10
517.6338
 20
251.03824999999998
 30
0.0
 11
526.1196
 21
251.03824999999998
 31
0.0
  0
TEXT
  5
1DA
330
17
100
AcDbEntity
  8
TEXTO
100
AcDbText
 10
527.5338999999999
 20
249.90680999999995
 30
0.0
 40
2.050735
  1
CABLES FUERZA/POTENCIA 13.2 kV + DUCTO RESERVA
 11
527.5338999999999
 21
249.90680999999995
 31
0.0
100
AcDbText
  0
LINE
  5
1DB
330
17
100
AcDbEntity
  8
TEXTO
100
AcDbLine
 10
517.6338
 20
233.35949999999997
 30
0.0
 11
526.1196
 21
233.35949999999997
 31
0.0
  0
TEXT
  5
1DC
330
17
100
AcDbEntity
  8
TEXTO
100
AcDbText
 10
527.5338999999999
 20
232.22805999999997
 30
0.0
 40
2.050735
  1
CAMA DE ARENA e=0.10 m
 11
527.5338999999999
 21
232.22805999999997
 31
0.0
100
AcDbText
  0
LINE
  5
1DD
330
17
100
AcDbEntity
  8
TIERRA-MALLA
  6
DASHED
100
AcDbLine
 10
455.40459999999996
 20
212.14499999999998
 30
0.0
 11
582.6916
 21
212.14499999999998
 31
0.0
  0
LWPOLYLINE
  5
1DE
330
17
100
AcDbEntity
  8
ESTRUCTURAS
100
AcDbPolyline
 90
4
 70
1
 10
453.42458
 20
210.16497999999999
 10
457.3846199999999
 20
210.16497999999999
 10
457.3846199999999
 20
214.12501999999998
 10
453.42458
 20
214.12501999999998
  0
TEXT
  5
1DF
330
17
100
AcDbEntity
  8
TEXTO-SPEC
100
AcDbText
 10
448.33309999999994
 20
205.0735
 30
0.0
 40
1.909305
  1
0+00
 11
448.33309999999994
 21
205.0735
 31
0.0
100
AcDbText
  0
LWPOLYLINE
  5
1E0
330
17
100
AcDbEntity
  8
ESTRUCTURAS
100
AcDbPolyline
 90
4
 70
1
 10
517.06808
 20
210.16497999999999
 10
521.02812
 20
210.16497999999999
 10
521.02812
 20
214.12501999999998
 10
517.06808
 20
214.12501999999998
  0
TEXT
  5
1E1
330
17
100
AcDbEntity
  8
TEXTO-SPEC
100
AcDbText
 10
511.97659999999996
 20
205.0735
 30
0.0
 40
1.909305
  1
0+30
 11
511.97659999999996
 21
205.0735
 31
0.0
100
AcDbText
  0
LWPOLYLINE
  5
1E2
330
17
100
AcDbEntity
  8
ESTRUCTURAS
100
AcDbPolyline
 90
4
 70
1
 10
580.71158
 20
210.16497999999999
 10
584.67162
 20
210.16497999999999
 10
584.67162
 20
214.12501999999998
 10
580.71158
 20
214.12501999999998
  0
TEXT
  5
1E3
330
17
100
AcDbEntity
  8
TEXTO-SPEC
100
AcDbText
 10
575.6201
 20
205.0735
 30
0.0
 40
1.909305
  1
0+60
 11
575.6201
 21
205.0735
 31
0.0
100
AcDbText
  0
TEXT
  5
1E4
330
17
100
AcDbEntity
  8
TEXTO-SPEC
100
AcDbText
 10
455.40459999999996
 20
217.80219999999997
 30
0.0
 40
1.909305
  1
ESQUEMA DE TRAZA (PLANTA) - CÁMARAS C/30m
 11
455.40459999999996
 21
217.80219999999997
 31
0.0
100
AcDbText
  0
MTEXT
  5
1E5
330
17
100
AcDbEntity
  8
TEXTO
100
AcDbMText
 10
429.94719999999995
 20
195.1734
 30
0.0
 40
2.1921649999999997
 41
381.861
 71
1
  1
DUCTOS DE RESERVA: PVC reforzado D110mm (1 por nivel) bajo vía vehicular\PSEPARACIÓN MÍNIMA BT/MT: según AEA 95301  |  PENDIENTE MÍN. DE DRENAJE: 0.5%\PREGISTROS: cámara prefabricada c/30m máx., tapa H.A. clase B125
 44
1.35
  0
LWPOLYLINE
  5
1E6
330
17
100
AcDbEntity
  8
0-MARCO
100
AcDbPolyline
 90
4
 70
1
 10
16.9716
 20
16.9716
 10
410.147
 20
16.9716
 10
410.147
 20
158.40159999999997
 10
16.9716
 20
158.40159999999997
  0
LWPOLYLINE
  5
1E7
330
17
100
AcDbEntity
  8
0-MARCO
100
AcDbPolyline
 90
4
 70
1
 10
16.9716
 20
144.2586
 10
410.147
 20
144.2586
 10
410.147
 20
158.40159999999997
 10
16.9716
 20
158.40159999999997
  0
MTEXT
  5
1E8
330
17
100
AcDbEntity
  8
TEXTO-TITULO
100
AcDbMText
 10
21.214499999999997
 20
155.57299999999998
 30
0.0
 40
5.94006
 41
384.6896
 71
1
  1
NOTAS GENERALES
 44
1.05
  0
MTEXT
  5
1E9
330
17
100
AcDbEntity
  8
TEXTO
100
AcDbMText
 10
25.4574
 20
138.60139999999998
 30
0.0
 40
2.333595
 41
373.37519999999995
 71
1
  3
1. Plano de carácter ilustrativo, elaborado como pieza de portafolio técnico personal - Rev. 2 (corregida y ampliada).\P2. Simbología eléctrica según convención ANSI/IEC simplificada. Ver Panel E para referencia completa.\P3. Cotas en metros salvo in
  3
dicación contraria. Vistas sin escala (S/E) o escala indicativa.\P4. Elaborado en el marco de un proceso de postulación laboral - no constituye documento de ingeniería de detalle.\P5. Referencias normativas: CIRSOC (estructuras), IRAM 2281 (puesta a 
  1
tierra), AEA 95301 (canalizaciones).
 44
1.35
  0
LWPOLYLINE
  5
1EA
330
17
100
AcDbEntity
  8
0-MARCO
100
AcDbPolyline
 90
4
 70
1
 10
421.46139999999997
 20
16.9716
 10
823.1225999999999
 20
16.9716
 10
823.1225999999999
 20
158.40159999999997
 10
421.46139999999997
 20
158.40159999999997
  0
LINE
  5
1EB
330
17
100
AcDbEntity
  8
0-MARCO
100
AcDbLine
 10
421.46139999999997
 20
124.45839999999998
 30
0.0
 11
823.1225999999999
 21
124.45839999999998
 31
0.0
  0
LINE
  5
1EC
330
17
100
AcDbEntity
  8
0-MARCO
100
AcDbLine
 10
421.46139999999997
 20
96.1724
 30
0.0
 11
823.1225999999999
 21
96.1724
 31
0.0
  0
LINE
  5
1ED
330
17
100
AcDbEntity
  8
0-MARCO
100
AcDbLine
 10
421.46139999999997
 20
67.8864
 30
0.0
 11
823.1225999999999
 21
67.8864
 31
0.0
  0
LINE
  5
1EE
330
17
100
AcDbEntity
  8
0-MARCO
100
AcDbLine
 10
636.435
 20
16.9716
 30
0.0
 11
636.435
 21
67.8864
 31
0.0
  0
TEXT
  5
1EF
330
17
100
AcDbEntity
  8
TEXTO-TITULO
100
AcDbText
 10
429.94719999999995
 20
135.7728
 30
0.0
 40
6.22292
  1
PIEZA DE PORTFOLIO TÉCNICO
 11
429.94719999999995
 21
135.7728
 31
0.0
100
AcDbText
  0
MTEXT
  5
1F0
330
17
100
AcDbEntity
  8
TEXTO
100
AcDbMText
 10
429.94719999999995
 20
118.8012
 30
0.0
 40
3.3943199999999996
 41
381.861
 71
1
  1
Postulación: Proyectista - Núcleo Eléctrica Argentina S.A.
 44
1.35
  0
MTEXT
  5
1F1
330
17
100
AcDbEntity
  8
TEXTO
100
AcDbMText
 10
429.94719999999995
 20
90.5152
 30
0.0
 40
2.8286
 41
381.861
 71
1
  1
Elaborado por: William Darío Sáenz Santamaría\PIng. Civil (UNAL) - Maestría en Cs. de Datos (UNAJ)
 44
1.35
  0
MTEXT
  5
1F2
330
17
100
AcDbEntity
  8
TEXTO
100
AcDbMText
 10
429.94719999999995
 20
62.22919999999999
 30
0.0
 40
2.4043099999999997
 41
198.00199999999998
 71
1
  1
Fecha: 20/06/2026\PGitHub: github.com/williamsaenz\PEscala: indicada por vista
 44
1.35
  0
MTEXT
  5
1F3
330
17
100
AcDbEntity
  8
TEXTO
100
AcDbMText
 10
644.9208
 20
62.22919999999999
 30
0.0
 40
2.050735
 41
172.54459999999997
 71
1
  1
Plano Nro.: PORT-2026-001\PRev.0: Emisión inicial\PRev.1: + Leyenda y detalle constructivo\PRev.2: Correc. de texto / lámina A1
 44
1.35
  0
ENDSEC
  0
SECTION
  2
OBJECTS
  0
DICTIONARY
  5
A
330
0
100
AcDbDictionary
281
1
  3
ACAD_COLOR
350
B
  3
ACAD_GROUP
350
C
  3
ACAD_LAYOUT
350
D
  3
ACAD_MATERIAL
350
E
  3
ACAD_MLEADERSTYLE
350
F
  3
ACAD_MLINESTYLE
350
10
  3
ACAD_PLOTSETTINGS
350
11
  3
ACAD_PLOTSTYLENAME
350
12
  3
ACAD_SCALELIST
350
14
  3
ACAD_TABLESTYLE
350
15
  3
ACAD_VISUALSTYLE
350
16
  3
EZDXF_META
350
2D
  0
DICTIONARY
  5
B
330
A
100
AcDbDictionary
281
1
  0
DICTIONARY
  5
C
330
A
100
AcDbDictionary
281
1
  0
DICTIONARY
  5
D
330
A
100
AcDbDictionary
281
1
  3
Model
350
1A
  3
Layout1
350
1E
  0
DICTIONARY
  5
E
330
A
100
AcDbDictionary
281
1
  3
ByBlock
350
1F
  3
ByLayer
350
20
  3
Global
350
21
  0
DICTIONARY
  5
F
330
A
100
AcDbDictionary
281
1
  3
Standard
350
2C
  0
DICTIONARY
  5
10
330
A
100
AcDbDictionary
281
1
  3
Standard
350
22
  0
DICTIONARY
  5
11
330
A
100
AcDbDictionary
281
1
  0
ACDBDICTIONARYWDFLT
  5
12
330
A
100
AcDbDictionary
281
1
  3
Normal
350
13
100
AcDbDictionaryWithDefault
340
13
  0
ACDBPLACEHOLDER
  5
13
330
12
  0
DICTIONARY
  5
14
330
A
100
AcDbDictionary
281
1
  0
DICTIONARY
  5
15
330
A
100
AcDbDictionary
281
1
  0
DICTIONARY
  5
16
330
A
100
AcDbDictionary
281
1
  3
2dWireframe
350
5A
  3
Basic
350
5B
  3
Brighten
350
5C
  3
ColorChange
350
5D
  3
Conceptual
350
5E
  3
Dim
350
5F
  3
EdgeColorOff
350
60
  3
Facepattern
350
61
  3
Flat
350
62
  3
FlatWithEdges
350
63
  3
Gouraud
350
64
  3
GouraudWithEdges
350
65
  3
Hidden
350
66
  3
JitterOff
350
67
  3
Linepattern
350
68
  3
Modeling
350
69
  3
OverhangOff
350
6A
  3
Realistic
350
6B
  3
Shaded
350
6C
  3
Shaded with edges
350
6D
  3
Shades of Gray
350
6E
  3
Sketchy
350
6F
  3
Thicken
350
70
  3
Wireframe
350
71
  3
X-Ray
350
72
  0
LAYOUT
  5
1A
330
D
100
AcDbPlotSettings
  1

  4
A3
  6

 40
7.5
 41
20.0
 42
7.5
 43
20.0
 44
420.0
 45
297.0
 46
0.0
 47
0.0
 48
0.0
 49
0.0
140
0.0
141
0.0
142
1.0
143
1.0
 70
1024
 72
1
 73
0
 74
5
  7

 75
16
 76
0
 77
2
 78
300
147
1.0
148
0.0
149
0.0
100
AcDbLayout
  1
Model
 70
1
 71
0
 10
0.0
 20
0.0
 11
420.0
 21
297.0
 12
0.0
 22
0.0
 32
0.0
 14
1e+20
 24
1e+20
 34
1e+20
 15
-1e+20
 25
-1e+20
 35
-1e+20
146
0.0
 13
0.0
 23
0.0
 33
0.0
 16
1.0
 26
0.0
 36
0.0
 17
0.0
 27
1.0
 37
0.0
 76
1
330
17
  0
LAYOUT
  5
1E
330
D
100
AcDbPlotSettings
  1

  4
A3
  6

 40
7.5
 41
20.0
 42
7.5
 43
20.0
 44
420.0
 45
297.0
 46
0.0
 47
0.0
 48
0.0
 49
0.0
140
0.0
141
0.0
142
1.0
143
1.0
 70
0
 72
1
 73
0
 74
5
  7

 75
16
 76
0
 77
2
 78
300
147
1.0
148
0.0
149
0.0
100
AcDbLayout
  1
Layout1
 70
1
 71
1
 10
0.0
 20
0.0
 11
420.0
 21
297.0
 12
0.0
 22
0.0
 32
0.0
 14
1e+20
 24
1e+20
 34
1e+20
 15
-1e+20
 25
-1e+20
 35
-1e+20
146
0.0
 13
0.0
 23
0.0
 33
0.0
 16
1.0
 26
0.0
 36
0.0
 17
0.0
 27
1.0
 37
0.0
 76
1
330
1B
  0
MATERIAL
  5
1F
102
{ACAD_REACTORS
330
E
102
}
330
E
100
AcDbMaterial
  1
ByBlock
  2

 70
0
 40
1.0
 71
1
 41
1.0
 91
-1023410177
 42
1.0
 72
1
  3

 73
1
 74
1
 75
1
 44
0.5
 73
0
 45
1.0
 46
1.0
 77
1
  4

 78
1
 79
1
170
1
 48
1.0
171
1
  6

172
1
173
1
174
1
140
1.0
141
1.0
175
1
  7

176
1
177
1
178
1
143
1.0
179
1
  8

270
1
271
1
272
1
145
1.0
146
1.0
273
1
  9

274
1
275
1
276
1
 42
1.0
 72
1
  3

 73
1
 74
1
 75
1
 94
63
  0
MATERIAL
  5
20
102
{ACAD_REACTORS
330
E
102
}
330
E
100
AcDbMaterial
  1
ByLayer
  2

 70
0
 40
1.0
 71
1
 41
1.0
 91
-1023410177
 42
1.0
 72
1
  3

 73
1
 74
1
 75
1
 44
0.5
 73
0
 45
1.0
 46
1.0
 77
1
  4

 78
1
 79
1
170
1
 48
1.0
171
1
  6

172
1
173
1
174
1
140
1.0
141
1.0
175
1
  7

176
1
177
1
178
1
143
1.0
179
1
  8

270
1
271
1
272
1
145
1.0
146
1.0
273
1
  9

274
1
275
1
276
1
 42
1.0
 72
1
  3

 73
1
 74
1
 75
1
 94
63
  0
MATERIAL
  5
21
102
{ACAD_REACTORS
330
E
102
}
330
E
100
AcDbMaterial
  1
Global
  2

 70
0
 40
1.0
 71
1
 41
1.0
 91
-1023410177
 42
1.0
 72
1
  3

 73
1
 74
1
 75
1
 44
0.5
 73
0
 45
1.0
 46
1.0
 77
1
  4

 78
1
 79
1
170
1
 48
1.0
171
1
  6

172
1
173
1
174
1
140
1.0
141
1.0
175
1
  7

176
1
177
1
178
1
143
1.0
179
1
  8

270
1
271
1
272
1
145
1.0
146
1.0
273
1
  9

274
1
275
1
276
1
 42
1.0
 72
1
  3

 73
1
 74
1
 75
1
 94
63
  0
MLINESTYLE
  5
22
102
{ACAD_REACTORS
330
10
102
}
330
10
100
AcDbMlineStyle
  2
Standard
 70
0
  3

 62
256
 51
90.0
 52
90.0
 71
2
 49
0.5
 62
256
  6
BYLAYER
 49
-0.5
 62
256
  6
BYLAYER
  0
MLEADERSTYLE
  5
2C
102
{ACAD_REACTORS
330
F
102
}
330
F
100
AcDbMLeaderStyle
179
2
170
2
171
1
172
0
 90
2
 40
0.0
 41
0.0
173
1
 91
-1056964608
 92
-2
290
1
 42
2.0
291
1
 43
8.0
  3
Standard
 44
4.0
300

342
29
174
1
175
1
176
0
178
1
 93
-1056964608
 45
4.0
292
0
297
0
 46
4.0
 94
-1056964608
 47
1.0
 49
1.0
140
1.0
294
1
141
0.0
177
0
142
1.0
295
0
296
0
143
3.75
271
0
272
9
273
9
  0
DICTIONARY
  5
2D
330
A
100
AcDbDictionary
280
1
281
1
  3
CREATED_BY_EZDXF
350
2E
  3
WRITTEN_BY_EZDXF
350
1F6
  0
DICTIONARYVAR
  5
2E
330
2D
100
DictionaryVariables
280
0
  1
1.4.4 @ 2026-06-20T22:19:21.394359+00:00
  0
VISUALSTYLE
  5
5A
102
{ACAD_REACTORS
330
16
102
}
330
16
100
AcDbVisualStyle
  2
2dWireframe
 70
4
 90
0
 40
0.6
 62
7
290
0
291
0
  0
VISUALSTYLE
  5
5B
102
{ACAD_REACTORS
330
16
102
}
330
16
100
AcDbVisualStyle
  2
Basic
 70
7
 90
1
 40
0.6
 62
7
290
0
291
1
  0
VISUALSTYLE
  5
5C
102
{ACAD_REACTORS
330
16
102
}
330
16
100
AcDbVisualStyle
  2
Brighten
 70
12
 90
2
 40
0.6
 62
7
290
0
291
1
  0
VISUALSTYLE
  5
5D
102
{ACAD_REACTORS
330
16
102
}
330
16
100
AcDbVisualStyle
  2
ColorChange
 70
16
 90
2
 40
0.6
 62
8
290
0
291
1
  0
VISUALSTYLE
  5
5E
102
{ACAD_REACTORS
330
16
102
}
330
16
100
AcDbVisualStyle
  2
Conceptual
 70
9
 90
3
 40
0.6
 62
7
290
0
291
0
  0
VISUALSTYLE
  5
5F
102
{ACAD_REACTORS
330
16
102
}
330
16
100
AcDbVisualStyle
  2
Dim
 70
11
 90
2
 40
0.6
 62
7
290
0
291
1
  0
VISUALSTYLE
  5
60
102
{ACAD_REACTORS
330
16
102
}
330
16
100
AcDbVisualStyle
  2
EdgeColorOff
 70
22
 90
2
 40
0.6
 62
7
290
0
291
1
  0
VISUALSTYLE
  5
61
102
{ACAD_REACTORS
330
16
102
}
330
16
100
AcDbVisualStyle
  2
Facepattern
 70
15
 90
2
 40
0.6
 62
7
290
0
291
1
  0
VISUALSTYLE
  5
62
102
{ACAD_REACTORS
330
16
102
}
330
16
100
AcDbVisualStyle
  2
Flat
 70
0
 90
2
 40
0.6
 62
7
290
0
291
1
  0
VISUALSTYLE
  5
63
102
{ACAD_REACTORS
330
16
102
}
330
16
100
AcDbVisualStyle
  2
FlatWithEdges
 70
1
 90
2
 40
0.6
 62
7
290
0
291
1
  0
VISUALSTYLE
  5
64
102
{ACAD_REACTORS
330
16
102
}
330
16
100
AcDbVisualStyle
  2
Gouraud
 70
2
 90
2
 40
0.6
 62
7
290
0
291
1
  0
VISUALSTYLE
  5
65
102
{ACAD_REACTORS
330
16
102
}
330
16
100
AcDbVisualStyle
  2
GouraudWithEdges
 70
3
 90
2
 40
0.6
 62
7
290
0
291
1
  0
VISUALSTYLE
  5
66
102
{ACAD_REACTORS
330
16
102
}
330
16
100
AcDbVisualStyle
  2
Hidden
 70
6
 90
1
 40
0.6
 62
7
290
0
291
0
  0
VISUALSTYLE
  5
67
102
{ACAD_REACTORS
330
16
102
}
330
16
100
AcDbVisualStyle
  2
JitterOff
 70
20
 90
2
 40
0.6
 62
7
290
0
291
1
  0
VISUALSTYLE
  5
68
102
{ACAD_REACTORS
330
16
102
}
330
16
100
AcDbVisualStyle
  2
Linepattern
 70
14
 90
2
 40
0.6
 62
7
290
0
291
1
  0
VISUALSTYLE
  5
69
102
{ACAD_REACTORS
330
16
102
}
330
16
100
AcDbVisualStyle
  2
Modeling
 70
10
 90
2
 40
0.6
 62
7
290
0
291
0
  0
VISUALSTYLE
  5
6A
102
{ACAD_REACTORS
330
16
102
}
330
16
100
AcDbVisualStyle
  2
OverhangOff
 70
21
 90
2
 40
0.6
 62
7
290
0
291
1
  0
VISUALSTYLE
  5
6B
102
{ACAD_REACTORS
330
16
102
}
330
16
100
AcDbVisualStyle
  2
Realistic
 70
8
 90
2
 40
0.6
 62
7
290
0
291
0
  0
VISUALSTYLE
  5
6C
102
{ACAD_REACTORS
330
16
102
}
330
16
100
AcDbVisualStyle
  2
Shaded
 70
27
 90
2
 40
0.6
 62
7
290
0
291
0
  0
VISUALSTYLE
  5
6D
102
{ACAD_REACTORS
330
16
102
}
330
16
100
AcDbVisualStyle
  2
Shaded with edges
 70
26
 90
2
 40
0.6
 62
7
290
0
291
0
  0
VISUALSTYLE
  5
6E
102
{ACAD_REACTORS
330
16
102
}
330
16
100
AcDbVisualStyle
  2
Shades of Gray
 70
23
 90
2
 40
0.6
 62
7
290
0
291
0
  0
VISUALSTYLE
  5
6F
102
{ACAD_REACTORS
330
16
102
}
330
16
100
AcDbVisualStyle
  2
Sketchy
 70
24
 90
1
 40
0.6
 62
7
290
0
291
0
  0
VISUALSTYLE
  5
70
102
{ACAD_REACTORS
330
16
102
}
330
16
100
AcDbVisualStyle
  2
Thicken
 70
13
 90
2
 40
0.6
 62
7
290
0
291
1
  0
VISUALSTYLE
  5
71
102
{ACAD_REACTORS
330
16
102
}
330
16
100
AcDbVisualStyle
  2
Wireframe
 70
5
 90
0
 40
0.6
 62
7
290
0
291
0
  0
VISUALSTYLE
  5
72
102
{ACAD_REACTORS
330
16
102
}
330
16
100
AcDbVisualStyle
  2
X-Ray
 70
25
 90
2
 40
0.5
 62
7
290
0
291
0
  0
DICTIONARYVAR
  5
1F6
330
2D
100
DictionaryVariables
280
0
  1
1.4.4 @ 2026-06-20T22:19:21.426758+00:00
  0
ENDSEC
  0
EOF
